# Blender v2.92.0 OBJ File: 'cosmetics.blend'
# www.blender.org
mtllib surfiboard.mtl
v 0.068402 0.300294 -1.414901
v 0.067450 0.307459 -1.414901
v 0.055945 0.320556 0.890805
v 0.055292 0.325471 0.890805
v 0.007291 0.292171 -1.414901
v 0.006339 0.299336 -1.414901
v 0.014023 0.314984 0.890805
v 0.013370 0.319899 0.890805
v 0.381254 0.305126 -0.262048
v 0.370700 0.384521 -0.262048
v -0.295959 0.215109 -0.262048
v -0.306513 0.294505 -0.262048
v 0.338951 0.304472 -0.838475
v -0.264210 0.295158 -0.838475
v 0.329696 0.374101 -0.838475
v -0.254955 0.225529 -0.838475
v 0.289861 0.363978 0.314378
v -0.215120 0.235652 0.314378
v 0.297855 0.303838 0.314378
v -0.223114 0.295793 0.314378
v 0.191949 0.339097 0.602591
v -0.117208 0.260533 0.602591
v 0.196844 0.302278 0.602591
v -0.122102 0.297352 0.602591
v 0.225838 0.302726 -1.126688
v -0.151097 0.296905 -1.126688
v 0.220054 0.346239 -1.126688
v -0.145313 0.253391 -1.126688
v 0.160760 0.301721 -1.270795
v -0.086018 0.297910 -1.270795
v 0.156973 0.330209 -1.270795
v -0.082232 0.269422 -1.270795
v 0.137143 0.336785 0.746698
v -0.065389 0.285317 0.746698
v 0.140349 0.312664 0.746698
v -0.068595 0.309438 0.746698
vt 0.805819 0.113913
vt 0.805819 0.012637
vt 0.850079 0.000000
vt 0.850079 0.020636
vt 0.872731 0.000000
vt 0.872731 0.020636
vt 0.731875 0.579166
vt 0.863178 0.579166
vt 0.814037 0.628307
vt 0.781015 0.628307
vt 0.814037 0.661329
vt 0.781015 0.661329
vt 0.731875 0.710469
vt 0.863177 0.710469
vt 0.044374 0.628136
vt 0.321564 0.628136
vt 0.365938 0.774285
vt 0.000000 0.774285
vt 0.410311 0.484357
vt 0.687501 0.484357
vt 0.731875 0.613641
vt 0.365938 0.613641
vt 0.297296 0.418842
vt 0.023539 0.375349
vt 0.000000 0.240704
vt 0.361405 0.298122
vt 0.722810 0.329684
vt 0.405863 0.380039
vt 0.361405 0.243653
vt 0.722810 0.186235
vt 0.675908 0.418037
vt 0.477838 0.449505
vt 0.343430 0.906268
vt 0.022508 0.906268
vt 0.709367 0.755313
vt 0.388445 0.755313
vt 0.044458 0.104318
vt 0.361405 0.154672
vt 0.234991 0.468477
vt 0.067392 0.441850
vt 0.776555 0.202176
vt 0.946255 0.202176
vt 1.000000 0.279992
vt 0.722810 0.279992
vt 0.098119 0.548378
vt 0.267819 0.548378
vt 0.384944 0.109007
vt 0.658700 0.065515
vt 0.127383 0.518961
vt 0.238555 0.518961
vt 0.916991 0.113913
vt 0.150401 0.484357
vt 0.040606 0.466913
vt 0.428797 0.042506
vt 0.596396 0.015879
vt 0.648111 0.463755
vt 0.518435 0.484357
vt 0.957987 0.484357
vt 0.957987 0.805278
vt 0.897804 0.745095
vt 0.897804 0.544540
vt 0.649184 0.835213
vt 0.448629 0.835213
vt 0.116433 0.034851
vt 0.314503 0.066319
vt 0.614558 0.876002
vt 0.483255 0.876002
vt 0.157030 0.000000
vt 0.286706 0.020602
vt 0.916991 0.012637
vt 0.171642 0.484357
vt 0.194295 0.484357
vt 0.402011 0.017443
vt 0.511806 0.000000
vn 0.8599 0.1143 0.4974
vn -0.0000 0.0000 1.0000
vn -0.8362 -0.1112 -0.5370
vn 0.0000 0.0000 -1.0000
vn 0.1314 -0.9885 -0.0744
vn -0.1314 0.9885 -0.0744
vn -0.1317 0.9911 0.0168
vn 0.1317 -0.9911 0.0168
vn -0.9812 -0.1304 0.1423
vn 0.9887 0.1314 -0.0727
vn 0.9236 0.1228 -0.3632
vn -0.1318 0.9912 -0.0085
vn 0.1318 -0.9912 -0.0085
vn -0.9887 -0.1314 -0.0727
vn -0.9362 -0.1244 0.3288
vn 0.1317 -0.9905 0.0408
vn -0.1317 0.9905 0.0408
vn 0.9812 0.1304 0.1423
vn -0.1317 0.9907 -0.0342
vn 0.1308 -0.9839 0.1222
vn -0.9269 -0.1232 0.3545
vn 0.9362 0.1244 0.3288
vn 0.9045 0.1202 -0.4093
vn -0.1316 0.9902 -0.0457
vn 0.1316 -0.9902 -0.0457
vn -0.9236 -0.1228 -0.3632
vn 0.8362 0.1112 -0.5370
vn -0.1316 0.9899 -0.0525
vn 0.1316 -0.9899 -0.0525
vn -0.9045 -0.1202 -0.4093
vn -0.8599 -0.1143 0.4974
vn 0.1306 -0.9828 0.1303
vn -0.1318 0.9913 0.0030
vn 0.9269 0.1232 0.3545
usemtl Material.003
s off
f 35/1/1 33/2/1 4/3/1 3/4/1
f 3/4/2 4/3/2 8/5/2 7/6/2
f 32/7/3 30/8/3 6/9/3 5/10/3
f 5/10/4 6/9/4 2/11/4 1/12/4
f 29/13/5 32/7/5 5/10/5 1/12/5
f 30/8/6 31/14/6 2/11/6 6/9/6
f 20/15/7 17/16/7 10/17/7 12/18/7
f 19/19/8 18/20/8 11/21/8 9/22/8
f 18/23/9 20/24/9 12/25/9 11/26/9
f 13/27/10 15/28/10 10/29/10 9/30/10
f 25/31/11 27/32/11 15/28/11 13/27/11
f 12/18/12 10/17/12 15/33/12 14/34/12
f 9/22/13 11/21/13 16/35/13 13/36/13
f 11/26/14 12/25/14 14/37/14 16/38/14
f 22/39/15 24/40/15 20/24/15 18/23/15
f 23/41/16 22/42/16 18/43/16 19/44/16
f 24/45/17 21/46/17 17/16/17 20/15/17
f 9/30/18 10/29/18 17/47/18 19/48/18
f 36/49/19 33/50/19 21/46/19 24/45/19
f 35/1/20 34/51/20 22/42/20 23/41/20
f 34/52/21 36/53/21 24/40/21 22/39/21
f 19/48/22 17/47/22 21/54/22 23/55/22
f 29/56/23 31/57/23 27/32/23 25/31/23
f 14/58/24 15/59/24 27/60/24 26/61/24
f 13/36/25 16/35/25 28/62/25 25/63/25
f 16/38/26 14/37/26 26/64/26 28/65/26
f 1/12/27 2/11/27 31/14/27 29/13/27
f 26/61/28 27/60/28 31/14/28 30/8/28
f 25/63/29 28/62/29 32/66/29 29/67/29
f 28/65/30 26/64/30 30/68/30 32/69/30
f 7/6/31 8/5/31 36/70/31 34/51/31
f 3/4/32 7/6/32 34/51/32 35/1/32
f 8/71/33 4/72/33 33/50/33 36/49/33
f 23/55/34 21/54/34 33/73/34 35/74/34
