# Blender v2.92.0 OBJ File: 'track1.blend'
# www.blender.org
mtllib sand_track_bounds.mtl
v 4.229598 -13.684454 -6.832220
v 4.229598 45.066109 -6.832220
v 4.229598 -13.684454 -2.187068
v 4.229598 45.066109 -2.187068
v -4.229598 -13.684454 -6.832220
v -4.229598 45.066109 -6.832220
v -4.229598 -13.684454 -1.615728
v -4.229598 45.066109 -1.615728
v -7.742240 -13.684454 -5.573521
v -7.742240 45.066109 -5.573521
v -7.742240 -13.684454 -0.194933
v -7.742240 45.066109 -0.194933
v -12.447747 -13.684454 -5.057474
v -12.447747 45.066109 -5.057474
v -12.447747 -13.684454 0.203866
v -12.447747 45.066109 0.203866
v -14.580775 -13.684454 -3.393715
v -14.580775 45.066109 -3.393715
v -14.223430 -13.684454 1.595872
v -14.223430 45.066109 1.595872
v -18.454615 -13.684454 -2.311674
v -18.454615 45.066109 -2.311674
v -18.454615 -13.684454 2.677913
v -18.454615 45.066109 2.677913
v -15.789153 45.066109 4.787868
v -15.789153 -13.684454 4.787868
v -18.024382 45.066109 9.362706
v -18.024382 -13.684454 9.362706
v -14.092681 45.066109 7.732096
v -14.092681 -13.684454 7.732096
v -16.327909 45.066109 12.306933
v -16.327909 -13.684454 12.306933
v -11.463210 45.034153 10.626317
v -11.463210 -13.716413 10.626317
v -13.341092 45.034153 15.495851
v -13.341092 -13.716413 15.495851
v -7.954303 45.034153 10.626317
v -7.954303 -13.716413 10.626317
v -8.028008 45.034153 15.495851
v -8.028008 -13.716413 15.495851
v -5.637679 45.034153 8.361193
v -5.637679 -13.716413 8.361193
v -5.711383 45.034153 12.936031
v -5.711383 -13.716413 12.936031
v -3.539356 45.034153 6.239935
v -3.539356 -13.716413 6.239935
v -3.613060 45.034153 10.401213
v -3.613060 -13.716413 10.401213
v 1.963142 45.034153 6.614742
v 1.963142 -13.716413 6.614742
v 1.889438 45.034153 10.776019
v 1.889438 -13.716413 10.776019
v 5.254803 45.034153 6.460271
v 5.254803 -13.716413 6.460271
v 5.693099 45.034153 11.035109
v 5.693099 -13.716413 11.035109
v 9.676180 45.034153 6.548367
v 9.676180 -13.716413 6.548367
v 9.602476 45.034153 11.123204
v 9.602476 -13.716413 11.123204
v 5.236917 45.034153 -6.643866
v 5.236917 -13.716413 -6.643866
v 9.658295 45.034153 -3.854974
v 9.658295 -13.716413 -3.854974
vt 0.625000 0.500000
vt 0.625000 0.500000
vt 0.875000 0.750000
vt 0.875000 0.500000
vt 0.375000 0.250000
vt 0.625000 0.250000
vt 0.625000 0.500000
vt 0.375000 0.500000
vt 0.625000 0.750000
vt 0.375000 0.750000
vt 0.375000 0.750000
vt 0.625000 0.750000
vt 0.625000 1.000000
vt 0.375000 1.000000
vt 0.125000 0.500000
vt 0.125000 0.750000
vt 0.625000 0.500000
vt 0.625000 0.750000
vt 0.625000 0.500000
vt 0.375000 0.500000
vt 0.375000 0.750000
vt 0.375000 0.750000
vt 0.625000 0.750000
vt 0.375000 0.500000
vt 0.625000 0.500000
vt 0.625000 0.750000
vt 0.625000 0.500000
vt 0.375000 0.500000
vt 0.375000 0.500000
vt 0.375000 0.750000
vt 0.625000 0.500000
vt 0.625000 0.500000
vt 0.375000 0.500000
vt 0.375000 0.500000
vt 0.625000 0.500000
vt 0.375000 0.500000
vt 0.625000 0.500000
vt 0.625000 0.500000
vt 0.625000 0.500000
vt 0.375000 0.500000
vt 0.375000 0.500000
vt 0.375000 0.500000
vt 0.375000 0.500000
vt 0.375000 0.500000
vt 0.375000 0.500000
vt 0.375000 0.500000
vt 0.625000 0.500000
vt 0.625000 0.500000
vt 0.625000 0.500000
vt 0.375000 0.500000
vt 0.625000 0.500000
vt 0.625000 0.500000
vt 0.625000 0.500000
vt 0.625000 0.500000
vt 0.625000 0.500000
vt 0.375000 0.500000
vt 0.375000 0.500000
vt 0.375000 0.500000
vt 0.375000 0.500000
vt 0.375000 0.500000
vt 0.625000 0.500000
vt 0.625000 0.500000
vt 0.625000 0.500000
vt 0.625000 0.500000
vt 0.375000 0.500000
vt 0.375000 0.500000
vt 0.375000 0.500000
vt 0.375000 0.500000
vn 0.0087 0.9999 -0.0052
vn 0.0674 0.0000 0.9977
vn -0.3373 0.0000 -0.9414
vn 0.0000 0.0000 -1.0000
vn 0.0000 -1.0000 0.0000
vn 0.0000 1.0000 0.0000
vn 0.3750 0.0000 0.9270
vn -0.6150 0.0000 -0.7885
vn 0.0844 0.0000 0.9964
vn -0.1090 0.0000 -0.9940
vn 0.6170 0.0000 0.7870
vn -1.0000 0.0000 0.0000
vn -0.2690 0.0000 -0.9631
vn -0.8665 0.0000 0.4993
vn 0.8978 0.0000 0.4404
vn -0.9979 0.0000 0.0642
vn 0.0077 1.0000 0.0034
vn 0.8665 0.0000 -0.4993
vn 0.7401 0.0000 -0.6724
vn -0.0077 -1.0000 -0.0034
vn -0.7299 0.0000 0.6836
vn 0.0000 0.0000 1.0000
vn 0.7703 0.0000 0.6377
vn 0.7414 0.0000 0.6710
vn -0.6991 0.0000 -0.7150
vn -0.7109 0.0000 -0.7033
vn 0.0680 0.0000 -0.9977
vn -0.0680 0.0000 0.9977
vn -0.0469 0.0000 -0.9989
vn 0.9999 0.0000 0.0161
vn -0.0225 0.0000 0.9997
vn 0.2937 0.0000 0.9559
vn 1.0000 0.0000 -0.0017
vn -1.0000 0.0000 0.0014
vn 0.1838 0.0000 -0.9830
vn -0.0087 -0.9999 0.0052
usemtl None
s off
f 63/1/1 61/2/1 2/3/1 4/4/1
f 3/5/2 4/6/2 8/7/2 7/8/2
f 6/9/3 5/10/3 9/11/3 10/12/3
f 5/10/4 6/9/4 2/13/4 1/14/4
f 3/15/5 7/8/5 5/10/5 1/16/5
f 8/7/6 4/4/6 2/3/6 6/9/6
f 12/17/6 10/12/6 14/18/6 16/19/6
f 5/10/5 7/8/5 11/20/5 9/11/5
f 8/7/6 6/9/6 10/12/6 12/17/6
f 7/8/7 8/7/7 12/17/7 11/20/7
f 14/18/8 13/21/8 17/22/8 18/23/8
f 11/20/9 12/17/9 16/19/9 15/24/9
f 10/12/10 9/11/10 13/21/10 14/18/10
f 9/11/5 11/20/5 15/24/5 13/21/5
f 20/25/6 18/23/6 22/26/6 24/27/6
f 13/21/5 15/24/5 19/28/5 17/22/5
f 16/19/6 14/18/6 18/23/6 20/25/6
f 15/24/11 16/19/11 20/25/11 19/28/11
f 23/29/12 24/27/12 22/26/12 21/30/12
f 20/25/6 24/27/6 27/31/6 25/32/6
f 18/23/13 17/22/13 21/30/13 22/26/13
f 17/22/5 19/28/5 23/29/5 21/30/5
f 27/31/14 28/33/14 32/34/14 31/35/14
f 19/28/15 20/25/15 25/32/15 26/36/15
f 23/29/5 19/28/5 26/36/5 28/33/5
f 24/27/16 23/29/16 28/33/16 27/31/16
f 29/37/17 31/35/17 35/38/17 33/39/17
f 25/32/6 27/31/6 31/35/6 29/37/6
f 26/36/18 25/32/18 29/37/18 30/40/18
f 28/33/5 26/36/5 30/40/5 32/34/5
f 36/41/5 34/42/5 38/43/5 40/44/5
f 30/40/19 29/37/19 33/39/19 34/42/19
f 32/34/20 30/40/20 34/42/20 36/41/20
f 31/35/21 32/34/21 36/41/21 35/38/21
f 40/44/5 38/43/5 42/45/5 44/46/5
f 35/38/22 36/41/22 40/44/22 39/47/22
f 33/39/6 35/38/6 39/47/6 37/48/6
f 34/42/4 33/39/4 37/48/4 38/43/4
f 43/49/23 44/46/23 48/50/23 47/51/23
f 39/47/24 40/44/24 44/46/24 43/49/24
f 37/48/6 39/47/6 43/49/6 41/52/6
f 38/43/25 37/48/25 41/52/25 42/45/25
f 45/53/6 47/51/6 51/54/6 49/55/6
f 41/52/6 43/49/6 47/51/6 45/53/6
f 42/45/26 41/52/26 45/53/26 46/56/26
f 44/46/5 42/45/5 46/56/5 48/50/5
f 52/57/5 50/58/5 54/59/5 56/60/5
f 46/56/27 45/53/27 49/55/27 50/58/27
f 48/50/5 46/56/5 50/58/5 52/57/5
f 47/51/28 48/50/28 52/57/28 51/54/28
f 53/61/6 55/62/6 59/63/6 57/64/6
f 51/54/28 52/57/28 56/60/28 55/62/28
f 49/55/6 51/54/6 55/62/6 53/61/6
f 50/58/29 49/55/29 53/61/29 54/59/29
f 58/65/30 57/64/30 59/63/30 60/66/30
f 58/65/5 54/59/5 62/67/5 64/68/5
f 56/60/5 54/59/5 58/65/5 60/66/5
f 55/62/31 56/60/31 60/66/31 59/63/31
f 64/68/32 63/1/32 4/6/32 3/5/32
f 57/64/33 58/65/33 64/68/33 63/1/33
f 53/61/6 57/64/6 63/1/6 61/2/6
f 54/59/34 53/61/34 61/2/34 62/67/34
f 61/2/35 62/67/35 1/14/35 2/13/35
f 62/67/36 64/68/36 3/15/36 1/16/36
