# Blender v2.92.0 OBJ File: 'track1.blend'
# www.blender.org
mtllib sand_track_bounds.mtl
v 14.939368 -80.842545 3.392981
v 14.939368 230.530350 3.392981
v 14.939368 -80.842545 4.384588
v 14.939368 230.530350 4.384588
v 8.531569 -80.842545 3.392981
v 8.531569 230.530350 3.392981
v 8.531569 -80.842545 4.384588
v 8.531569 230.530350 4.384588
v 14.939368 -80.842545 -14.201676
v 14.939368 230.530350 -14.201676
v 9.248606 230.530350 -14.201676
v 9.248606 -80.842545 -14.201676
v 14.939368 -80.842545 -8.756999
v 14.939368 230.530350 -8.756999
v 8.531569 -80.842545 -7.903035
v 8.531569 230.530350 -7.903035
v -21.419268 230.530350 -14.201676
v -21.419268 -80.842545 -14.201676
v -21.419268 -80.842545 -8.756999
v -21.419268 230.530350 -8.756999
v -15.950110 230.530350 -14.201676
v -15.607069 230.530350 -7.903035
v -15.950110 -80.842545 -14.201676
v -15.607069 -80.842545 -7.903035
v -21.419268 230.530350 22.666357
v -21.419268 -80.842545 22.666357
v -15.950110 230.530350 22.666357
v -15.950110 -80.842545 22.666357
v -15.607069 230.530350 15.966901
v -15.607069 -80.842545 15.966901
v -21.419268 -80.842545 15.966901
v -21.419268 230.530350 15.966901
v 15.158916 230.530350 22.666357
v 15.158916 -80.842545 22.666357
v 15.158916 230.530350 15.966901
v 15.158916 -80.842545 15.966901
v 8.338310 230.530350 22.666357
v 8.338310 230.530350 15.966901
v 8.338310 -80.842545 15.966901
v 8.338310 -80.842545 22.666357
v 15.158916 230.530350 7.958381
v 15.158916 -80.842545 7.958381
v 8.338310 230.530350 7.958381
v 8.338310 -80.842545 7.958381
vt 0.375000 0.000000
vt 0.625000 0.000000
vt 0.625000 0.250000
vt 0.375000 0.250000
vt 0.375000 0.750000
vt 0.625000 0.750000
vt 0.625000 0.500000
vt 0.375000 0.500000
vt 0.625000 0.750000
vt 0.375000 0.750000
vt 0.625000 0.000000
vt 0.375000 0.000000
vt 0.375000 0.000000
vt 0.625000 0.000000
vt 0.125000 0.500000
vt 0.125000 0.750000
vt 0.875000 0.500000
vt 0.875000 0.750000
vt 0.375000 0.750000
vt 0.625000 0.750000
vt 0.625000 1.000000
vt 0.375000 1.000000
vt 0.125000 0.750000
vt 0.375000 0.750000
vt 0.125000 0.750000
vt 0.625000 0.750000
vt 0.875000 0.750000
vt 0.875000 0.750000
vt 0.625000 0.750000
vt 0.625000 0.750000
vt 0.625000 0.750000
vt 0.625000 0.750000
vt 0.375000 0.750000
vt 0.375000 0.750000
vt 0.375000 0.750000
vt 0.625000 0.750000
vt 0.625000 0.750000
vt 0.625000 0.750000
vt 0.625000 0.750000
vt 0.375000 0.750000
vt 0.375000 0.750000
vt 0.625000 0.750000
vt 0.625000 0.750000
vt 0.375000 0.750000
vt 0.375000 0.750000
vt 0.375000 0.750000
vt 0.625000 0.750000
vt 0.625000 0.750000
vt 0.375000 0.750000
vt 0.375000 0.750000
vt 0.375000 0.750000
vt 0.625000 0.750000
vt 0.375000 0.750000
vt 0.375000 0.750000
vn 1.0000 0.0000 0.0000
vn -0.9985 0.0000 -0.0540
vn -1.0000 0.0000 0.0000
vn 0.0000 -1.0000 0.0000
vn 0.0000 1.0000 0.0000
vn 0.0000 0.0000 -1.0000
vn 0.0000 0.0000 1.0000
vn 0.9981 0.0000 -0.0613
usemtl None
s off
f 1/1/1 2/2/1 4/3/1 3/4/1
f 44/5/2 43/6/2 8/7/2 7/8/2
f 7/8/3 8/7/3 6/9/3 5/10/3
f 14/11/1 13/12/1 9/13/1 10/14/1
f 3/15/4 7/8/4 5/10/4 1/16/4
f 8/7/5 4/17/5 2/18/5 6/9/5
f 12/19/6 11/20/6 10/21/6 9/22/6
f 13/23/4 15/24/4 12/19/4 9/25/4
f 16/26/5 14/27/5 10/28/5 11/20/5
f 22/29/5 21/30/5 17/31/5 20/32/5
f 5/10/3 6/9/3 16/26/3 15/24/3
f 6/9/5 2/18/5 14/27/5 16/26/5
f 1/16/4 5/10/4 15/24/4 13/23/4
f 2/2/1 1/1/1 13/12/1 14/11/1
f 19/33/3 20/32/3 17/31/3 18/34/3
f 21/30/6 23/35/6 18/34/6 17/31/6
f 38/36/5 37/37/5 33/38/5 35/39/5
f 23/35/4 24/40/4 19/33/4 18/34/4
f 12/19/4 15/24/4 24/40/4 23/35/4
f 15/24/7 16/26/7 22/29/7 24/40/7
f 11/20/6 12/19/6 23/35/6 21/30/6
f 16/26/5 11/20/5 21/30/5 22/29/5
f 28/41/7 27/42/7 25/43/7 26/44/7
f 31/45/4 30/46/4 28/41/4 26/44/4
f 29/47/5 32/48/5 25/43/5 27/42/5
f 32/48/3 31/45/3 26/44/3 25/43/3
f 20/32/3 19/33/3 31/45/3 32/48/3
f 22/29/5 20/32/5 32/48/5 29/47/5
f 19/33/4 24/40/4 30/46/4 31/45/4
f 24/40/1 22/29/1 29/47/1 30/46/1
f 36/49/1 35/39/1 33/38/1 34/50/1
f 35/39/1 36/49/1 42/51/1 41/52/1
f 40/53/4 39/54/4 36/49/4 34/50/4
f 37/37/7 40/53/7 34/50/7 33/38/7
f 27/42/7 28/41/7 40/53/7 37/37/7
f 28/41/4 30/46/4 39/54/4 40/53/4
f 30/46/6 29/47/6 38/36/6 39/54/6
f 29/47/5 27/42/5 37/37/5 38/36/5
f 42/51/4 44/5/4 7/8/4 3/15/4
f 39/54/3 38/36/3 43/6/3 44/5/3
f 36/49/4 39/54/4 44/5/4 42/51/4
f 38/36/5 35/39/5 41/52/5 43/6/5
f 43/6/5 41/52/5 4/17/5 8/7/5
f 41/52/8 42/51/8 3/4/8 4/3/8
