# Blender v2.92.0 OBJ File: 'savannah_track.blend'
# www.blender.org
mtllib savannah_track_bounds.mtl
v 2.671027 -0.204917 1.822590
v 2.671027 1.795083 1.822590
v 1.000000 -0.204917 1.817111
v 1.000000 1.795083 1.817111
v -1.000000 -0.204917 -1.767483
v -1.000000 1.795083 -1.767483
v -1.000000 -0.204917 1.792380
v -1.000000 1.795083 1.792380
v 4.830320 -0.085043 -1.701508
v 4.830320 1.914957 -1.701508
v 4.830320 -0.085043 0.298492
v 4.830320 1.914957 0.298492
v 2.830320 -0.085043 -1.701508
v 2.830320 1.914957 -1.701508
v 2.830320 -0.085043 0.298492
v 2.830320 1.914957 0.298492
v 1.264316 1.914957 -1.307870
v 1.264316 -0.085043 -1.307870
v 1.264316 -0.085043 -3.307870
v 1.264316 1.914957 -3.307870
v 0.144499 1.914957 -2.532459
v 0.144499 -0.085043 -2.532459
v 0.144499 -0.085043 -4.532460
v 0.144499 1.914957 -4.532460
v -0.914602 1.914957 -3.171474
v -0.914602 -0.085043 -3.171474
v -0.914602 -0.085043 -5.171475
v -0.914602 1.914957 -5.171475
v -3.571803 1.914957 -2.957467
v -3.571803 -0.085043 -2.957467
v -3.571803 -0.085043 -4.957467
v -3.571803 1.914957 -4.957467
v -2.031297 -0.085043 -3.081537
v -2.031297 -0.085043 -5.081537
v -2.031297 1.914957 -5.081537
v -2.031297 1.914957 -3.081537
v -3.572886 2.116453 4.266884
v -3.572886 0.116453 4.266884
v -2.032381 0.116453 4.142813
v -2.032381 2.116453 4.142813
v -2.032181 0.079362 2.812981
v -3.572687 0.079362 2.937052
v -2.032182 2.079362 2.812981
v -3.572687 2.079362 2.937052
v 4.947870 2.028315 4.214069
v 4.947870 0.028315 4.214069
v 4.948070 -0.008776 2.884237
v 4.948070 1.991225 2.884237
v 3.877786 2.041827 4.203146
v 3.877986 2.004736 2.873314
v 3.877986 0.004736 2.873314
v 3.877786 0.041827 4.203146
v 4.967173 1.991225 1.012874
v 4.967173 -0.008776 1.012874
v 3.897089 0.004736 1.001950
v 3.897089 2.004736 1.001950
v 4.028519 -0.085043 0.298492
v 4.028519 1.914957 0.298492
v 4.028519 -0.085043 -1.701508
v 4.028519 1.914957 -1.701508
v 4.830320 1.914957 0.420701
v 4.830320 -0.085043 0.420701
v 4.028519 -0.085043 0.420701
v 4.028519 1.914957 0.420701
v 3.422340 1.914957 0.298492
v 3.422340 -0.085043 -1.701508
v 3.422340 -0.085043 0.298492
v 3.422340 1.914957 -1.701508
v 3.931598 -0.085043 1.069307
v 4.028519 -0.085043 0.628027
v 4.028519 1.914957 0.628027
v 3.931598 1.914957 1.069307
vt 0.375000 0.000000
vt 0.625000 0.000000
vt 0.625000 0.250000
vt 0.375000 0.250000
vt 0.625000 0.500000
vt 0.375000 0.500000
vt 0.625000 0.750000
vt 0.375000 0.750000
vt 0.625000 1.000000
vt 0.375000 1.000000
vt 0.125000 0.500000
vt 0.125000 0.750000
vt 0.875000 0.500000
vt 0.875000 0.750000
vt 0.375000 0.000000
vt 0.625000 0.000000
vt 0.625000 0.250000
vt 0.375000 0.250000
vt 0.375000 0.425997
vt 0.625000 0.425997
vt 0.625000 0.500000
vt 0.375000 0.500000
vt 0.625000 0.750000
vt 0.625000 0.750000
vt 0.625000 0.500000
vt 0.375000 0.899775
vt 0.625000 0.899775
vt 0.625000 1.000000
vt 0.375000 1.000000
vt 0.300997 0.500000
vt 0.375000 0.750000
vt 0.300997 0.750000
vt 0.774775 0.500000
vt 0.875000 0.500000
vt 0.875000 0.750000
vt 0.774775 0.750000
vt 0.625000 0.750000
vt 0.625000 0.500000
vt 0.375000 0.500000
vt 0.375000 0.750000
vt 0.375000 0.750000
vt 0.375000 0.750000
vt 0.625000 0.750000
vt 0.375000 0.500000
vt 0.375000 0.750000
vt 0.375000 0.500000
vt 0.375000 0.500000
vt 0.375000 0.750000
vt 0.375000 0.500000
vt 0.625000 0.500000
vt 0.625000 0.500000
vt 0.625000 0.750000
vt 0.625000 0.500000
vt 0.625000 0.750000
vt 0.375000 0.500000
vt 0.375000 0.500000
vt 0.375000 0.500000
vt 0.375000 0.500000
vt 0.625000 0.500000
vt 0.625000 0.500000
vt 0.625000 0.500000
vt 0.625000 0.500000
vt 0.625000 0.500000
vt 0.625000 0.500000
vt 0.625000 0.500000
vt 0.625000 0.500000
vt 0.375000 0.500000
vt 0.375000 0.500000
vt 0.375000 0.500000
vt 0.375000 0.500000
vt 0.375000 0.500000
vt 0.625000 0.500000
vt 0.625000 0.350225
vt 0.375000 0.350225
vt 0.375000 0.500000
vt 0.625000 0.500000
vt 0.699003 0.500000
vt 0.699003 0.750000
vt 0.125000 0.500000
vt 0.225225 0.500000
vt 0.225225 0.750000
vt 0.125000 0.750000
vt 0.375000 0.824003
vt 0.625000 0.824003
vt 0.774775 0.500000
vt 0.875000 0.500000
vt 0.625000 0.250000
vt 0.375000 0.250000
vt 0.125000 0.500000
vt 0.225225 0.500000
vt 0.625000 0.350225
vt 0.375000 0.350225
vt 0.225225 0.500000
vt 0.300997 0.500000
vt 0.375000 0.350225
vt 0.625000 0.350225
vt 0.625000 0.425997
vt 0.375000 0.425997
vt 0.699003 0.500000
vt 0.774775 0.500000
vn -0.0033 0.0000 1.0000
vn -0.0124 0.0000 0.9999
vn -1.0000 0.0000 0.0000
vn 0.6992 0.0000 -0.7149
vn 0.0000 -1.0000 0.0000
vn 0.0000 1.0000 0.0000
vn 1.0000 0.0000 0.0000
vn 0.0000 0.0000 1.0000
vn 0.0000 0.0000 -1.0000
vn -0.7160 0.0000 0.6981
vn 0.7160 0.0000 -0.6981
vn 0.5166 0.0000 -0.8562
vn -0.7380 0.0000 0.6748
vn 0.7380 0.0000 -0.6748
vn -0.5166 0.0000 0.8562
vn 0.0022 -0.9996 0.0279
vn -0.0803 0.0000 -0.9968
vn 0.0803 0.0000 0.9968
vn 0.0129 0.9995 -0.0279
vn -1.0000 0.0000 -0.0002
vn -0.0022 0.9996 -0.0279
vn 1.0000 0.0000 0.0002
vn -0.0129 -0.9995 0.0279
vn -0.0102 0.0000 0.9999
vn 0.9999 0.0000 0.0102
vn 0.0102 0.0000 -0.9999
vn -0.9754 -0.0000 -0.2205
vn -0.9999 -0.0000 -0.0102
vn -0.0126 -0.9999 -0.0001
vn 0.0126 0.9999 0.0001
vn 0.0080 0.9901 -0.1401
vn -0.0080 -0.9901 0.1401
vn 0.9743 0.0000 -0.2252
vn 0.9767 0.0000 0.2145
vn -0.8344 0.0000 0.5512
usemtl None
s off
f 1/1/1 2/2/1 4/3/1 3/4/1
f 3/4/2 4/3/2 8/5/2 7/6/2
f 7/6/3 8/5/3 6/7/3 5/8/3
f 5/8/4 6/7/4 2/9/4 1/10/4
f 3/11/5 7/6/5 5/8/5 1/12/5
f 8/5/6 4/13/6 2/14/6 6/7/6
f 9/15/7 10/16/7 12/17/7 11/18/7
f 67/19/8 65/20/8 16/21/8 15/22/8
f 16/21/6 14/23/6 20/24/6 17/25/6
f 59/26/9 60/27/9 10/28/9 9/29/9
f 67/30/5 15/22/5 13/31/5 66/32/5
f 58/33/6 12/34/6 10/35/6 60/36/6
f 17/25/6 20/24/6 24/37/6 21/38/6
f 15/22/10 16/21/10 17/25/10 18/39/10
f 14/23/11 13/31/11 19/40/11 20/24/11
f 13/31/5 15/22/5 18/39/5 19/40/5
f 24/37/12 23/41/12 27/42/12 28/43/12
f 18/39/13 17/25/13 21/38/13 22/44/13
f 20/24/14 19/40/14 23/41/14 24/37/14
f 19/40/5 18/39/5 22/44/5 23/41/5
f 34/45/5 33/46/5 30/47/5 31/48/5
f 23/41/5 22/44/5 26/49/5 27/42/5
f 21/38/6 24/37/6 28/43/6 25/50/6
f 22/44/15 21/38/15 25/50/15 26/49/15
f 30/47/3 29/51/3 32/52/3 31/48/3
f 36/53/6 35/54/6 32/52/6 29/51/6
f 42/55/16 41/56/16 39/57/16 38/58/16
f 35/54/17 34/45/17 31/48/17 32/52/17
f 28/43/17 27/42/17 34/45/17 35/54/17
f 26/49/18 25/50/18 36/53/18 33/46/18
f 25/50/6 28/43/6 35/54/6 36/53/6
f 27/42/5 26/49/5 33/46/5 34/45/5
f 39/57/18 40/59/18 37/60/18 38/58/18
f 50/61/19 49/62/19 45/63/19 48/64/19
f 44/65/20 42/55/20 38/58/20 37/60/20
f 43/66/21 44/65/21 37/60/21 40/59/21
f 36/53/21 29/51/21 44/65/21 43/66/21
f 29/51/20 30/47/20 42/55/20 44/65/20
f 33/46/22 36/53/22 43/66/22 41/56/22
f 30/47/16 33/46/16 41/56/16 42/55/16
f 47/67/22 48/64/22 45/63/22 46/68/22
f 52/69/23 51/70/23 47/67/23 46/68/23
f 49/62/24 52/69/24 46/68/24 45/63/24
f 48/64/25 47/67/25 54/71/25 53/72/25
f 41/56/26 43/66/26 50/61/26 51/70/26
f 40/59/24 39/57/24 52/69/24 49/62/24
f 39/57/23 41/56/23 51/70/23 52/69/23
f 43/66/19 40/59/19 49/62/19 50/61/19
f 64/73/27 63/74/27 55/75/27 56/76/27
f 51/70/28 50/61/28 56/76/28 55/75/28
f 47/67/29 51/70/29 55/75/29 54/71/29
f 50/61/30 48/64/30 53/72/30 56/76/30
f 65/77/6 58/33/6 60/36/6 68/78/6
f 11/79/5 57/80/5 59/81/5 9/82/5
f 66/83/9 68/84/9 60/27/9 59/26/9
f 12/34/6 58/33/6 64/85/6 61/86/6
f 61/86/31 64/85/31 56/76/31 53/72/31
f 11/18/7 12/17/7 61/87/7 62/88/7
f 57/80/5 11/79/5 62/89/5 63/90/5
f 58/91/3 57/92/3 63/74/3 64/73/3
f 63/90/32 62/89/32 54/71/32 55/75/32
f 62/88/33 61/87/33 53/72/33 54/71/33
f 13/31/9 14/23/9 68/84/9 66/83/9
f 16/21/6 65/77/6 68/78/6 14/23/6
f 57/80/5 67/30/5 66/32/5 59/81/5
f 67/30/5 57/80/5 70/93/5 69/94/5
f 70/95/34 71/96/34 72/97/34 69/98/34
f 58/33/6 65/77/6 72/99/6 71/100/6
f 57/92/7 58/91/7 71/96/7 70/95/7
f 65/20/35 67/19/35 69/98/35 72/97/35
