# Blender v2.92.0 OBJ File: 'plains_track.blend'
# www.blender.org
mtllib plains_track_bounds.mtl
v -3.835124 -5.745193 -5.858163
v -3.835124 147.473038 -5.858163
v -3.835124 -5.745193 0.359381
v -3.835124 147.473038 0.359381
v -5.555439 -5.745193 -5.858163
v -5.555439 147.473038 -5.858163
v -5.555439 -5.745193 0.359381
v -5.555439 147.473038 0.359381
vt 0.375000 0.000000
vt 0.625000 0.000000
vt 0.625000 0.250000
vt 0.375000 0.250000
vt 0.625000 0.500000
vt 0.375000 0.500000
vt 0.625000 0.750000
vt 0.375000 0.750000
vt 0.625000 1.000000
vt 0.375000 1.000000
vt 0.125000 0.500000
vt 0.125000 0.750000
vt 0.875000 0.500000
vt 0.875000 0.750000
vn 1.0000 0.0000 0.0000
vn 0.0000 0.0000 1.0000
vn -1.0000 0.0000 0.0000
vn 0.0000 0.0000 -1.0000
vn 0.0000 -1.0000 0.0000
vn 0.0000 1.0000 0.0000
usemtl None
s off
f 1/1/1 2/2/1 4/3/1 3/4/1
f 3/4/2 4/3/2 8/5/2 7/6/2
f 7/6/3 8/5/3 6/7/3 5/8/3
f 5/8/4 6/7/4 2/9/4 1/10/4
f 3/11/5 7/6/5 5/8/5 1/12/5
f 8/5/6 4/13/6 2/14/6 6/7/6
v 4.799294 -3.439339 -2.486958
v 4.799294 175.375763 -2.486958
v 4.799294 -3.439339 0.608922
v 4.799294 175.375763 0.608922
v 1.862723 -3.439339 -2.486958
v 1.862723 175.375763 -2.486958
v 1.862723 -3.439339 0.608922
v 1.862723 175.375763 0.608922
vt 0.375000 0.000000
vt 0.625000 0.000000
vt 0.625000 0.250000
vt 0.375000 0.250000
vt 0.625000 0.500000
vt 0.375000 0.500000
vt 0.625000 0.750000
vt 0.375000 0.750000
vt 0.625000 1.000000
vt 0.375000 1.000000
vt 0.125000 0.500000
vt 0.125000 0.750000
vt 0.875000 0.500000
vt 0.875000 0.750000
vn 1.0000 0.0000 0.0000
vn 0.0000 0.0000 1.0000
vn -1.0000 0.0000 0.0000
vn 0.0000 0.0000 -1.0000
vn 0.0000 -1.0000 0.0000
vn 0.0000 1.0000 0.0000
usemtl None
s off
f 9/15/7 10/16/7 12/17/7 11/18/7
f 11/18/8 12/17/8 16/19/8 15/20/8
f 15/20/9 16/19/9 14/21/9 13/22/9
f 13/22/10 14/21/10 10/23/10 9/24/10
f 11/25/11 15/20/11 13/22/11 9/26/11
f 16/19/12 12/27/12 10/28/12 14/21/12
v 0.190731 -4.459106 2.655993
v 0.190731 174.910736 2.655993
v 0.190731 -4.459106 4.188029
v 0.190731 174.910736 4.188029
v -2.227906 -4.459106 2.655993
v -2.227906 174.910736 2.655993
v -2.227906 -4.459106 4.188029
v -2.227906 174.910736 4.188029
vt 0.375000 0.000000
vt 0.625000 0.000000
vt 0.625000 0.250000
vt 0.375000 0.250000
vt 0.625000 0.500000
vt 0.375000 0.500000
vt 0.625000 0.750000
vt 0.375000 0.750000
vt 0.625000 1.000000
vt 0.375000 1.000000
vt 0.125000 0.500000
vt 0.125000 0.750000
vt 0.875000 0.500000
vt 0.875000 0.750000
vn 1.0000 0.0000 0.0000
vn 0.0000 0.0000 1.0000
vn -1.0000 0.0000 0.0000
vn 0.0000 0.0000 -1.0000
vn 0.0000 -1.0000 0.0000
vn 0.0000 1.0000 0.0000
usemtl None
s off
f 17/29/13 18/30/13 20/31/13 19/32/13
f 19/32/14 20/31/14 24/33/14 23/34/14
f 23/34/15 24/33/15 22/35/15 21/36/15
f 21/36/16 22/35/16 18/37/16 17/38/16
f 19/39/17 23/34/17 21/36/17 17/40/17
f 24/33/18 20/41/18 18/42/18 22/35/18
v 0.250524 -5.745193 -8.724790
v 0.250524 147.473038 -8.724790
v 0.250524 -5.745193 0.412586
v 0.250524 147.473038 0.412586
v -2.131922 -5.745193 -8.724790
v -2.131922 147.473038 -8.724790
v -2.131922 -5.745193 0.412586
v -2.131922 147.473038 0.412586
vt 0.375000 0.000000
vt 0.625000 0.000000
vt 0.625000 0.250000
vt 0.375000 0.250000
vt 0.625000 0.500000
vt 0.375000 0.500000
vt 0.625000 0.750000
vt 0.375000 0.750000
vt 0.625000 1.000000
vt 0.375000 1.000000
vt 0.125000 0.500000
vt 0.125000 0.750000
vt 0.875000 0.500000
vt 0.875000 0.750000
vn 1.0000 0.0000 0.0000
vn 0.0000 0.0000 1.0000
vn -1.0000 0.0000 0.0000
vn 0.0000 0.0000 -1.0000
vn 0.0000 -1.0000 0.0000
vn 0.0000 1.0000 0.0000
usemtl None
s off
f 25/43/19 26/44/19 28/45/19 27/46/19
f 27/46/20 28/45/20 32/47/20 31/48/20
f 31/48/21 32/47/21 30/49/21 29/50/21
f 29/50/22 30/49/22 26/51/22 25/52/22
f 27/53/23 31/48/23 29/50/23 25/54/23
f 32/47/24 28/55/24 26/56/24 30/49/24
v 1.000000 -0.742376 -9.919528
v 1.000000 162.219589 -9.919528
v 1.000000 -0.742376 -7.919528
v 1.000000 162.219589 -7.919528
v -9.947875 -0.742376 -9.919528
v -9.947875 162.219589 -9.919528
v -9.947875 -0.742376 -7.919528
v -9.947875 162.219589 -7.919528
v -7.691158 -0.742376 -7.919528
v -7.691158 162.219589 -7.919528
v -7.691158 -0.742376 -9.919528
v -7.691158 162.219589 -9.919528
v -7.691158 162.219589 9.282012
v -9.947875 162.219589 9.282012
v -9.947875 -0.742376 9.282012
v -7.691158 -0.742376 9.282012
v -7.691158 162.219589 6.431520
v -7.691158 -0.742376 6.431520
v -9.947875 -0.742376 6.431520
v -9.947875 162.219589 6.431520
v 9.575906 162.219589 9.282012
v 9.575906 -0.742376 9.282012
v 9.575906 162.219589 6.431520
v 9.575906 -0.742376 6.431520
v 6.700521 162.219589 9.282012
v 6.700521 162.219589 6.431520
v 6.700521 -0.742376 6.431520
v 6.700521 -0.742376 9.282012
v 9.575906 162.219589 -9.826776
v 9.575906 -0.742376 -9.826776
v 6.700521 162.219589 -9.826776
v 6.700521 -0.742376 -9.826776
v 9.575906 162.219589 -7.884924
v 6.700521 162.219589 -7.884924
v 9.575906 -0.742376 -7.884924
v 6.700521 -0.742376 -7.884924
v 2.256525 162.219589 -9.826776
v 2.256525 -0.742376 -9.826776
v 2.256525 162.219589 -7.884924
v 2.256525 -0.742376 -7.884924
v 1.000000 162.219589 -4.536024
v 1.000000 -0.742376 -4.536024
v 2.256525 162.219589 -4.501420
v 2.256525 -0.742376 -4.501420
v 1.000000 162.219589 -6.227776
v 2.256525 162.219589 -6.193172
v 2.256525 -0.742376 -6.193172
v 1.000000 -0.742376 -6.227776
v 7.021602 162.219589 -4.501420
v 7.021602 -0.742376 -4.501420
v 7.021602 162.219589 -6.193172
v 7.021602 -0.742376 -6.193172
v -7.691158 -0.742376 2.843759
v -9.947875 162.219589 2.843759
v -7.691158 162.219589 2.843759
v -9.947875 -0.742376 2.843759
v -7.691158 162.219589 4.637639
v -9.947875 -0.742376 4.637639
v -7.691158 -0.742376 4.637639
v -9.947875 162.219589 4.637639
v -3.972943 -0.742376 4.637639
v -3.972943 -0.742376 2.843759
v -3.972943 162.219589 2.843759
v -3.972943 162.219589 4.637639
v -5.088408 162.219589 2.843759
v -5.088408 -0.742376 2.843759
v -5.088408 -0.742376 4.637639
v -5.088408 162.219589 4.637639
v -3.972943 162.219589 6.435012
v -3.972943 -0.742376 6.435012
v -5.088408 -0.742376 6.435012
v -5.088408 162.219589 6.435012
v 0.163910 162.219589 -4.536024
v 0.163910 -0.742376 -4.536024
v 0.163910 162.219589 -6.227776
v 0.163910 -0.742376 -6.227776
v 6.700521 162.219589 2.370296
v 6.700521 -0.742376 2.370296
v 9.575906 162.219589 2.370296
v 9.575906 -0.742376 2.370296
v 6.700521 162.219589 3.548052
v 6.700521 -0.742376 3.548052
v 9.575906 162.219589 3.548052
v 9.575906 -0.742376 3.548052
v 1.963325 162.219589 2.370296
v 1.963325 -0.742376 2.370296
v 1.963325 162.219589 3.548052
v 1.963325 -0.742376 3.548052
v 3.005508 162.219589 3.548052
v 3.005508 -0.742376 3.548052
v 3.005508 -0.742376 2.370296
v 3.005508 162.219589 2.370296
v 1.963325 162.219589 6.512803
v 1.963325 -0.742376 6.512803
v 3.005508 162.219589 6.512803
v 3.005508 -0.742376 6.512803
vt 0.676533 0.500000
vt 0.676533 0.500000
vt 0.875000 0.750000
vt 0.875000 0.500000
vt 0.676533 0.500000
vt 0.676533 0.500000
vt 0.676533 0.500000
vt 0.676533 0.500000
vt 0.375000 0.500000
vt 0.625000 0.500000
vt 0.625000 0.750000
vt 0.375000 0.750000
vt 0.375000 0.801533
vt 0.625000 0.801533
vt 0.625000 1.000000
vt 0.375000 1.000000
vt 0.323467 0.500000
vt 0.323467 0.750000
vt 0.676533 0.500000
vt 0.676533 0.750000
vt 0.125000 0.500000
vt 0.125000 0.750000
vt 0.375000 0.250000
vt 0.625000 0.250000
vt 0.625000 0.448467
vt 0.375000 0.448467
vt 0.375000 0.448467
vt 0.625000 0.448467
vt 0.625000 0.500000
vt 0.375000 0.500000
vt 0.625000 0.500000
vt 0.375000 0.500000
vt 0.676533 0.500000
vt 0.676533 0.500000
vt 0.323467 0.500000
vt 0.323467 0.500000
vt 0.375000 0.500000
vt 0.323467 0.500000
vt 0.676533 0.500000
vt 0.625000 0.500000
vt 0.375000 0.448467
vt 0.625000 0.448467
vt 0.625000 0.448467
vt 0.375000 0.448467
vt 0.375000 0.448467
vt 0.625000 0.448467
vt 0.625000 0.448467
vt 0.375000 0.448467
vt 0.676533 0.500000
vt 0.676533 0.500000
vt 0.676533 0.500000
vt 0.676533 0.500000
vt 0.323467 0.500000
vt 0.323467 0.500000
vt 0.323467 0.500000
vt 0.323467 0.500000
vt 0.625000 0.448467
vt 0.375000 0.448467
vt 0.625000 0.448467
vt 0.375000 0.448467
vt 0.375000 0.448467
vt 0.625000 0.448467
vt 0.625000 0.448467
vt 0.375000 0.448467
vt 0.625000 0.448467
vt 0.375000 0.448467
vt 0.375000 0.448467
vt 0.625000 0.448467
vt 0.625000 0.448467
vt 0.375000 0.448467
vt 0.323467 0.500000
vt 0.323467 0.500000
vt 0.323467 0.500000
vt 0.323467 0.500000
vt 0.323467 0.500000
vt 0.323467 0.500000
vt 0.375000 0.448467
vt 0.625000 0.448467
vt 0.625000 0.448467
vt 0.375000 0.448467
vt 0.676533 0.500000
vt 0.676533 0.500000
vt 0.676533 0.500000
vt 0.875000 0.500000
vt 0.875000 0.500000
vt 0.676533 0.500000
vt 0.323467 0.500000
vt 0.323467 0.500000
vt 0.375000 0.448467
vt 0.625000 0.448467
vt 0.375000 0.448467
vt 0.625000 0.448467
vt 0.625000 0.250000
vt 0.375000 0.250000
vt 0.676533 0.500000
vt 0.676533 0.500000
vt 0.875000 0.500000
vt 0.875000 0.500000
vt 0.125000 0.500000
vt 0.323467 0.500000
vt 0.323467 0.500000
vt 0.125000 0.500000
vt 0.375000 0.250000
vt 0.625000 0.250000
vt 0.625000 0.448467
vt 0.375000 0.448467
vt 0.375000 0.448467
vt 0.625000 0.448467
vt 0.625000 0.448467
vt 0.375000 0.448467
vt 0.323467 0.500000
vt 0.323467 0.500000
vt 0.625000 0.448467
vt 0.375000 0.448467
vt 0.375000 0.500000
vt 0.625000 0.500000
vt 0.676533 0.500000
vt 0.323467 0.500000
vt 0.375000 0.448467
vt 0.625000 0.448467
vt 0.625000 0.448467
vt 0.375000 0.448467
vt 0.625000 0.448467
vt 0.375000 0.448467
vt 0.323467 0.500000
vt 0.323467 0.500000
vt 0.323467 0.500000
vt 0.323467 0.500000
vt 0.323467 0.500000
vt 0.323467 0.500000
vt 0.676533 0.500000
vt 0.676533 0.500000
vt 0.676533 0.500000
vt 0.676533 0.500000
vt 0.375000 0.448467
vt 0.625000 0.448467
vt 0.625000 0.448467
vt 0.375000 0.448467
vt 0.375000 0.448467
vt 0.625000 0.448467
vt 0.676533 0.500000
vt 0.676533 0.500000
vt 0.625000 0.250000
vt 0.375000 0.250000
vt 0.375000 0.250000
vt 0.625000 0.250000
vt 0.125000 0.500000
vt 0.125000 0.500000
vt 0.676533 0.500000
vt 0.676533 0.500000
vt 0.625000 0.448467
vt 0.375000 0.448467
vt 0.676533 0.500000
vt 0.676533 0.500000
vt 0.676533 0.500000
vt 0.676533 0.500000
vt 0.323467 0.500000
vt 0.323467 0.500000
vt 0.625000 0.448467
vt 0.375000 0.448467
vt 0.375000 0.448467
vt 0.625000 0.448467
vt 0.625000 0.448467
vt 0.375000 0.448467
vt 0.323467 0.500000
vt 0.323467 0.500000
vt 0.323467 0.500000
vt 0.323467 0.500000
vt 0.676533 0.500000
vt 0.676533 0.500000
vt 0.625000 0.448467
vt 0.375000 0.448467
vt 0.625000 0.448467
vt 0.375000 0.448467
vt 0.375000 0.448467
vt 0.625000 0.448467
vt 0.625000 0.448467
vt 0.375000 0.448467
vt 0.323467 0.500000
vt 0.323467 0.500000
vn 0.0000 1.0000 0.0000
vn -1.0000 0.0000 0.0000
vn 0.0000 0.0000 -1.0000
vn 0.0000 -1.0000 0.0000
vn 0.0000 0.0000 1.0000
vn 1.0000 0.0000 0.0000
vn 0.0736 0.0000 -0.9973
vn -0.0275 0.0000 0.9996
usemtl None
s off
f 71/57/25 69/58/25 34/59/25 36/60/25
f 58/61/25 57/62/25 53/63/25 55/64/25
f 39/65/26 40/66/26 38/67/26 37/68/26
f 43/69/27 44/70/27 34/71/27 33/72/27
f 41/73/28 39/65/28 37/68/28 43/74/28
f 42/75/25 36/60/25 34/59/25 44/76/25
f 40/66/25 42/75/25 44/76/25 38/67/25
f 35/77/28 41/73/28 43/74/28 33/78/28
f 37/68/27 38/67/27 44/70/27 43/69/27
f 35/79/29 36/80/29 42/81/29 41/82/29
f 48/83/29 45/84/29 46/85/29 47/86/29
f 52/87/26 51/88/26 47/86/26 46/85/26
f 49/89/25 52/87/25 46/85/25 45/90/25
f 51/88/28 50/91/28 48/92/28 47/86/28
f 90/93/28 91/94/28 50/91/28 51/88/28
f 89/95/25 92/96/25 52/87/25 49/89/25
f 92/96/26 90/93/26 51/88/26 52/87/26
f 91/97/30 89/98/30 49/99/30 50/100/30
f 56/101/30 55/102/30 53/103/30 54/104/30
f 66/105/25 65/106/25 61/107/25 63/108/25
f 60/109/28 59/110/28 56/111/28 54/112/28
f 57/113/29 60/114/29 54/104/29 53/103/29
f 45/84/29 48/83/29 60/114/29 57/113/29
f 48/92/28 50/91/28 59/110/28 60/109/28
f 50/100/27 49/99/27 58/115/27 59/116/27
f 49/89/25 45/90/25 57/62/25 58/61/25
f 64/117/27 63/118/27 61/119/27 62/120/27
f 65/121/30 67/122/30 62/120/30 61/119/30
f 68/123/29 66/124/29 71/125/29 72/126/29
f 67/127/28 68/128/28 64/129/28 62/130/28
f 112/131/28 110/132/28 68/128/28 67/127/28
f 110/133/26 109/134/26 66/124/26 68/123/26
f 111/135/30 112/136/30 67/122/30 65/121/30
f 109/137/25 111/138/25 65/106/25 66/105/25
f 78/139/25 77/140/25 73/141/25 75/142/25
f 64/129/28 68/128/28 72/143/28 70/144/28
f 66/105/25 63/108/25 69/58/25 71/57/25
f 63/118/27 64/117/27 70/145/27 69/146/27
f 69/146/31 70/145/31 33/72/31 34/71/31
f 70/144/28 72/143/28 35/77/28 33/78/28
f 76/147/32 75/148/32 73/149/32 74/150/32
f 78/139/25 75/142/25 81/151/25 83/152/25
f 73/141/25 77/140/25 107/153/25 105/154/25
f 80/155/28 79/156/28 76/157/28 74/158/28
f 35/77/28 72/143/28 79/156/28 80/155/28
f 36/80/26 35/79/26 80/159/26 77/160/26
f 72/126/30 71/125/30 78/161/30 79/162/30
f 71/57/25 36/60/25 77/140/25 78/139/25
f 84/163/30 83/164/30 81/165/30 82/166/30
f 79/162/27 78/161/27 83/164/27 84/163/27
f 75/148/29 76/147/29 82/166/29 81/165/29
f 76/157/28 79/156/28 84/167/28 82/168/28
f 41/82/30 42/81/30 87/169/30 85/170/30
f 40/66/26 39/65/26 88/171/26 86/172/26
f 42/75/25 40/66/25 86/172/25 87/173/25
f 39/65/28 41/73/28 85/174/28 88/171/28
f 98/175/27 97/176/27 95/177/27 94/178/27
f 86/172/26 88/171/26 90/93/26 92/96/26
f 87/173/25 86/172/25 92/96/25 89/95/25
f 88/171/28 85/174/28 91/94/28 90/93/28
f 94/178/30 95/177/30 96/179/30 93/180/30
f 99/181/28 98/182/28 94/183/28 93/184/28
f 99/181/28 93/184/28 102/185/28 103/186/28
f 97/187/25 100/188/25 96/189/25 95/190/25
f 87/173/25 89/95/25 100/188/25 97/187/25
f 89/98/29 91/97/29 99/191/29 100/192/29
f 91/94/28 85/174/28 98/182/28 99/181/28
f 85/170/27 87/169/27 97/176/27 98/175/27
f 104/193/29 103/194/29 102/195/29 101/196/29
f 100/192/26 99/191/26 103/194/26 104/193/26
f 96/189/25 100/188/25 104/197/25 101/198/25
f 93/180/30 96/179/30 101/196/30 102/195/30
f 107/199/26 108/200/26 106/201/26 105/202/26
f 77/160/27 80/159/27 108/200/27 107/199/27
f 74/150/29 73/149/29 105/202/29 106/201/29
f 80/155/28 74/158/28 106/203/28 108/204/28
f 113/205/25 115/206/25 111/138/25 109/137/25
f 115/207/30 116/208/30 112/136/30 111/135/30
f 121/209/25 119/210/25 125/211/25 127/212/25
f 116/213/28 114/214/28 110/132/28 112/131/28
f 56/111/28 59/110/28 114/214/28 116/213/28
f 59/116/26 58/115/26 113/215/26 114/216/26
f 55/102/30 56/101/30 116/208/30 115/207/30
f 58/61/25 55/64/25 115/206/25 113/205/25
f 120/217/26 119/218/26 117/219/26 118/220/26
f 123/221/28 122/222/28 120/223/28 118/224/28
f 121/209/25 124/225/25 117/226/25 119/210/25
f 124/227/27 123/228/27 118/220/27 117/219/27
f 109/134/27 110/133/27 123/228/27 124/227/27
f 113/205/25 109/137/25 124/225/25 121/209/25
f 110/132/28 114/214/28 122/222/28 123/221/28
f 114/216/29 113/215/29 121/229/29 122/230/29
f 128/231/29 127/232/29 125/233/29 126/234/29
f 122/230/30 121/229/30 127/232/30 128/231/30
f 120/223/28 122/222/28 128/235/28 126/236/28
f 119/218/26 120/217/26 126/234/26 125/233/26
