# Blender v2.92.0 OBJ File: 'track1.blend'
# www.blender.org
mtllib sand_track_bounds.mtl
v 14.939368 -80.842545 3.392981
v 14.939368 230.530350 3.392981
v 14.939368 -80.842545 4.384588
v 14.939368 230.530350 4.384588
v 8.531569 -80.842545 3.392981
v 8.531569 230.530350 3.392981
v 8.531569 -80.842545 4.384588
v 8.531569 230.530350 4.384588
v 14.939368 -80.842545 -14.201676
v 14.939368 230.530350 -14.201676
v 9.248606 230.530350 -14.201676
v 9.248606 -80.842545 -14.201676
v 14.939368 -80.842545 -8.756999
v 14.939368 230.530350 -8.756999
v 8.531569 -80.842545 -7.903035
v 8.531569 230.530350 -7.903035
v -21.419268 230.530350 -14.201676
v -21.419268 -80.842545 -14.201676
v -21.419268 -80.842545 -8.756999
v -21.419268 230.530350 -8.756999
v -15.950110 230.530350 -14.201676
v -15.607069 230.530350 -7.903035
v -15.950110 -80.842545 -14.201676
v -15.607069 -80.842545 -7.903035
v -21.419268 230.530350 22.666357
v -21.419268 -80.842545 22.666357
v -15.950110 230.530350 22.666357
v -15.950110 -80.842545 22.666357
v -15.607069 230.530350 15.966901
v -15.607069 -80.842545 15.966901
v -21.419268 -80.842545 15.966901
v -21.419268 230.530350 15.966901
v 15.158916 230.530350 22.666357
v 15.158916 -80.842545 22.666357
v 15.158916 230.530350 15.966901
v 15.158916 -80.842545 15.966901
v 8.338310 230.530350 22.666357
v 8.338310 230.530350 15.966901
v 8.338310 -80.842545 15.966901
v 8.338310 -80.842545 22.666357
v 15.158916 230.530350 7.958381
v 15.158916 -80.842545 7.958381
v 8.338310 230.530350 7.958381
v 8.338310 -80.842545 7.958381
v 0.000000 -221.934631 3.796813
v 0.000000 361.472656 3.796813
v -0.354284 -221.934631 3.767608
v -0.354284 361.472656 3.767608
v -0.694953 -221.934631 3.681113
v -0.694953 361.472656 3.681113
v -1.008915 -221.934631 3.540651
v -1.008915 361.472656 3.540651
v -1.284105 -221.934631 3.351622
v -1.284105 361.472656 3.351622
v -1.509948 -221.934631 3.121290
v -1.509948 361.472656 3.121290
v -1.677765 -221.934631 2.858506
v -1.677765 361.472656 2.858506
v -1.781105 -221.934631 2.573370
v -1.781105 361.472656 2.573370
v -1.815999 -221.934631 2.276837
v -1.815999 361.472656 2.276837
v -1.781105 -221.934631 1.980304
v -1.781105 361.472656 1.980304
v -1.677765 -221.934631 1.695167
v -1.677765 361.472656 1.695167
v -1.509948 -221.934631 1.432382
v -1.509948 361.472656 1.432382
v -1.284105 -221.934631 1.202049
v -1.284105 361.472656 1.202049
v -1.008915 -221.934631 1.013021
v -1.008915 361.472656 1.013021
v -0.694953 -221.934631 0.872560
v -0.694953 361.472656 0.872560
v -0.354283 -221.934631 0.786065
v -0.354283 361.472656 0.786065
v 0.000001 -221.934631 0.756859
v 0.000001 361.472656 0.756859
v 0.354285 -221.934631 0.786065
v 0.354285 361.472656 0.786065
v 0.694954 -221.934631 0.872561
v 0.694954 361.472656 0.872561
v 1.008916 -221.934631 1.013021
v 1.008916 361.472656 1.013021
v 1.284106 -221.934631 1.202051
v 1.284106 361.472656 1.202051
v 1.509949 -221.934631 1.432382
v 1.509949 361.472656 1.432382
v 1.677765 -221.934631 1.695168
v 1.677765 361.472656 1.695168
v 1.781106 -221.934631 1.980305
v 1.781106 361.472656 1.980305
v 1.816000 -221.934631 2.276838
v 1.816000 361.472656 2.276838
v 1.781105 -221.934631 2.573371
v 1.781105 361.472656 2.573371
v 1.677764 -221.934631 2.858508
v 1.677764 361.472656 2.858508
v 1.509947 -221.934631 3.121292
v 1.509947 361.472656 3.121292
v 1.284104 -221.934631 3.351624
v 1.284104 361.472656 3.351624
v 1.008913 -221.934631 3.540653
v 1.008913 361.472656 3.540653
v 0.694950 -221.934631 3.681113
v 0.694950 361.472656 3.681113
v 0.354281 -221.934631 3.767608
v 0.354281 361.472656 3.767608
v -9.504085 -259.393463 6.204175
v -9.504085 398.931488 6.204175
v -9.999149 -259.393463 6.164802
v -9.999149 398.931488 6.164802
v -10.475190 -259.393463 6.048189
v -10.475190 398.931488 6.048189
v -10.913910 -259.393463 5.858823
v -10.913910 398.931488 5.858823
v -11.298452 -259.393463 5.603979
v -11.298452 398.931488 5.603979
v -11.614039 -259.393463 5.293449
v -11.614039 398.931488 5.293449
v -11.848540 -259.393463 4.939170
v -11.848540 398.931488 4.939170
v -11.992945 -259.393463 4.554755
v -11.992945 398.931488 4.554755
v -12.041705 -259.393463 4.154976
v -12.041705 398.931488 4.154976
v -11.992945 -259.393463 3.755196
v -11.992945 398.931488 3.755196
v -11.848540 -259.393463 3.370781
v -11.848540 398.931488 3.370781
v -11.614039 -259.393463 3.016502
v -11.614039 398.931488 3.016502
v -11.298452 -259.393463 2.705971
v -11.298452 398.931488 2.705971
v -10.913910 -259.393463 2.451128
v -10.913910 398.931488 2.451128
v -10.475190 -259.393463 2.261760
v -10.475190 398.931488 2.261760
v -9.999148 -259.393463 2.145150
v -9.999148 398.931488 2.145150
v -9.504083 -259.393463 2.105775
v -9.504083 398.931488 2.105775
v -9.009017 -259.393463 2.145150
v -9.009017 398.931488 2.145150
v -8.532978 -259.393463 2.261762
v -8.532978 398.931488 2.261762
v -8.094257 -259.393463 2.451128
v -8.094257 398.931488 2.451128
v -7.709715 -259.393463 2.705973
v -7.709715 398.931488 2.705973
v -7.394128 -259.393463 3.016502
v -7.394128 398.931488 3.016502
v -7.159628 -259.393463 3.370783
v -7.159628 398.931488 3.370783
v -7.015223 -259.393463 3.755199
v -7.015223 398.931488 3.755199
v -6.966464 -259.393463 4.154978
v -6.966464 398.931488 4.154978
v -7.015224 -259.393463 4.554757
v -7.015224 398.931488 4.554757
v -7.159630 -259.393463 4.939173
v -7.159630 398.931488 4.939173
v -7.394132 -259.393463 5.293451
v -7.394132 398.931488 5.293451
v -7.709718 -259.393463 5.603980
v -7.709718 398.931488 5.603980
v -8.094260 -259.393463 5.858824
v -8.094260 398.931488 5.858824
v -8.532983 -259.393463 6.048190
v -8.532983 398.931488 6.048190
v -9.009023 -259.393463 6.164802
v -9.009023 398.931488 6.164802
vt 0.375000 0.000000
vt 0.625000 0.000000
vt 0.625000 0.250000
vt 0.375000 0.250000
vt 0.375000 0.750000
vt 0.625000 0.750000
vt 0.625000 0.500000
vt 0.375000 0.500000
vt 0.625000 0.750000
vt 0.375000 0.750000
vt 0.625000 0.000000
vt 0.375000 0.000000
vt 0.375000 0.000000
vt 0.625000 0.000000
vt 0.125000 0.500000
vt 0.125000 0.750000
vt 0.875000 0.500000
vt 0.875000 0.750000
vt 0.375000 0.750000
vt 0.625000 0.750000
vt 0.625000 1.000000
vt 0.375000 1.000000
vt 0.125000 0.750000
vt 0.375000 0.750000
vt 0.125000 0.750000
vt 0.625000 0.750000
vt 0.875000 0.750000
vt 0.875000 0.750000
vt 0.625000 0.750000
vt 0.625000 0.750000
vt 0.625000 0.750000
vt 0.625000 0.750000
vt 0.375000 0.750000
vt 0.375000 0.750000
vt 0.375000 0.750000
vt 0.625000 0.750000
vt 0.625000 0.750000
vt 0.625000 0.750000
vt 0.625000 0.750000
vt 0.375000 0.750000
vt 0.375000 0.750000
vt 0.625000 0.750000
vt 0.625000 0.750000
vt 0.375000 0.750000
vt 0.375000 0.750000
vt 0.375000 0.750000
vt 0.625000 0.750000
vt 0.625000 0.750000
vt 0.375000 0.750000
vt 0.375000 0.750000
vt 0.375000 0.750000
vt 0.625000 0.750000
vt 0.375000 0.750000
vt 0.375000 0.750000
vt 1.000000 0.500000
vt 1.000000 1.000000
vt 0.968750 1.000000
vt 0.968750 0.500000
vt 0.937500 1.000000
vt 0.937500 0.500000
vt 0.906250 1.000000
vt 0.906250 0.500000
vt 0.875000 1.000000
vt 0.875000 0.500000
vt 0.843750 1.000000
vt 0.843750 0.500000
vt 0.812500 1.000000
vt 0.812500 0.500000
vt 0.781250 1.000000
vt 0.781250 0.500000
vt 0.750000 1.000000
vt 0.750000 0.500000
vt 0.718750 1.000000
vt 0.718750 0.500000
vt 0.687500 1.000000
vt 0.687500 0.500000
vt 0.656250 1.000000
vt 0.656250 0.500000
vt 0.625000 1.000000
vt 0.625000 0.500000
vt 0.593750 1.000000
vt 0.593750 0.500000
vt 0.562500 1.000000
vt 0.562500 0.500000
vt 0.531250 1.000000
vt 0.531250 0.500000
vt 0.500000 1.000000
vt 0.500000 0.500000
vt 0.468750 1.000000
vt 0.468750 0.500000
vt 0.437500 1.000000
vt 0.437500 0.500000
vt 0.406250 1.000000
vt 0.406250 0.500000
vt 0.375000 1.000000
vt 0.375000 0.500000
vt 0.343750 1.000000
vt 0.343750 0.500000
vt 0.312500 1.000000
vt 0.312500 0.500000
vt 0.281250 1.000000
vt 0.281250 0.500000
vt 0.250000 1.000000
vt 0.250000 0.500000
vt 0.218750 1.000000
vt 0.218750 0.500000
vt 0.187500 1.000000
vt 0.187500 0.500000
vt 0.156250 1.000000
vt 0.156250 0.500000
vt 0.125000 1.000000
vt 0.125000 0.500000
vt 0.093750 1.000000
vt 0.093750 0.500000
vt 0.062500 1.000000
vt 0.062500 0.500000
vt 0.296822 0.485388
vt 0.250000 0.490000
vt 0.203179 0.485388
vt 0.158156 0.471731
vt 0.116663 0.449553
vt 0.080295 0.419706
vt 0.050447 0.383337
vt 0.028269 0.341844
vt 0.014612 0.296822
vt 0.010000 0.250000
vt 0.014611 0.203179
vt 0.028269 0.158156
vt 0.050447 0.116663
vt 0.080294 0.080294
vt 0.116663 0.050447
vt 0.158156 0.028269
vt 0.203178 0.014612
vt 0.250000 0.010000
vt 0.296822 0.014612
vt 0.341844 0.028269
vt 0.383337 0.050447
vt 0.419706 0.080294
vt 0.449553 0.116663
vt 0.471731 0.158156
vt 0.485388 0.203178
vt 0.490000 0.250000
vt 0.485388 0.296822
vt 0.471731 0.341844
vt 0.449553 0.383337
vt 0.419706 0.419706
vt 0.383337 0.449553
vt 0.341844 0.471731
vt 0.031250 1.000000
vt 0.031250 0.500000
vt 0.000000 1.000000
vt 0.000000 0.500000
vt 0.750000 0.490000
vt 0.796822 0.485388
vt 0.841844 0.471731
vt 0.883337 0.449553
vt 0.919706 0.419706
vt 0.949553 0.383337
vt 0.971731 0.341844
vt 0.985388 0.296822
vt 0.990000 0.250000
vt 0.985388 0.203178
vt 0.971731 0.158156
vt 0.949553 0.116663
vt 0.919706 0.080294
vt 0.883337 0.050447
vt 0.841844 0.028269
vt 0.796822 0.014612
vt 0.750000 0.010000
vt 0.703178 0.014612
vt 0.658156 0.028269
vt 0.616663 0.050447
vt 0.580294 0.080294
vt 0.550447 0.116663
vt 0.528269 0.158156
vt 0.514611 0.203179
vt 0.510000 0.250000
vt 0.514612 0.296822
vt 0.528269 0.341844
vt 0.550447 0.383337
vt 0.580295 0.419706
vt 0.616663 0.449553
vt 0.658156 0.471731
vt 0.703179 0.485388
vt 1.000000 0.500000
vt 1.000000 1.000000
vt 0.968750 1.000000
vt 0.968750 0.500000
vt 0.937500 1.000000
vt 0.937500 0.500000
vt 0.906250 1.000000
vt 0.906250 0.500000
vt 0.875000 1.000000
vt 0.875000 0.500000
vt 0.843750 1.000000
vt 0.843750 0.500000
vt 0.812500 1.000000
vt 0.812500 0.500000
vt 0.781250 1.000000
vt 0.781250 0.500000
vt 0.750000 1.000000
vt 0.750000 0.500000
vt 0.718750 1.000000
vt 0.718750 0.500000
vt 0.687500 1.000000
vt 0.687500 0.500000
vt 0.656250 1.000000
vt 0.656250 0.500000
vt 0.625000 1.000000
vt 0.625000 0.500000
vt 0.593750 1.000000
vt 0.593750 0.500000
vt 0.562500 1.000000
vt 0.562500 0.500000
vt 0.531250 1.000000
vt 0.531250 0.500000
vt 0.500000 1.000000
vt 0.500000 0.500000
vt 0.468750 1.000000
vt 0.468750 0.500000
vt 0.437500 1.000000
vt 0.437500 0.500000
vt 0.406250 1.000000
vt 0.406250 0.500000
vt 0.375000 1.000000
vt 0.375000 0.500000
vt 0.343750 1.000000
vt 0.343750 0.500000
vt 0.312500 1.000000
vt 0.312500 0.500000
vt 0.281250 1.000000
vt 0.281250 0.500000
vt 0.250000 1.000000
vt 0.250000 0.500000
vt 0.218750 1.000000
vt 0.218750 0.500000
vt 0.187500 1.000000
vt 0.187500 0.500000
vt 0.156250 1.000000
vt 0.156250 0.500000
vt 0.125000 1.000000
vt 0.125000 0.500000
vt 0.093750 1.000000
vt 0.093750 0.500000
vt 0.062500 1.000000
vt 0.062500 0.500000
vt 0.296822 0.485388
vt 0.250000 0.490000
vt 0.203179 0.485388
vt 0.158156 0.471731
vt 0.116663 0.449553
vt 0.080295 0.419706
vt 0.050447 0.383337
vt 0.028269 0.341844
vt 0.014612 0.296822
vt 0.010000 0.250000
vt 0.014611 0.203179
vt 0.028269 0.158156
vt 0.050447 0.116663
vt 0.080294 0.080294
vt 0.116663 0.050447
vt 0.158156 0.028269
vt 0.203178 0.014612
vt 0.250000 0.010000
vt 0.296822 0.014612
vt 0.341844 0.028269
vt 0.383337 0.050447
vt 0.419706 0.080294
vt 0.449553 0.116663
vt 0.471731 0.158156
vt 0.485388 0.203178
vt 0.490000 0.250000
vt 0.485388 0.296822
vt 0.471731 0.341844
vt 0.449553 0.383337
vt 0.419706 0.419706
vt 0.383337 0.449553
vt 0.341844 0.471731
vt 0.031250 1.000000
vt 0.031250 0.500000
vt 0.000000 1.000000
vt 0.000000 0.500000
vt 0.750000 0.490000
vt 0.796822 0.485388
vt 0.841844 0.471731
vt 0.883337 0.449553
vt 0.919706 0.419706
vt 0.949553 0.383337
vt 0.971731 0.341844
vt 0.985388 0.296822
vt 0.990000 0.250000
vt 0.985388 0.203178
vt 0.971731 0.158156
vt 0.949553 0.116663
vt 0.919706 0.080294
vt 0.883337 0.050447
vt 0.841844 0.028269
vt 0.796822 0.014612
vt 0.750000 0.010000
vt 0.703178 0.014612
vt 0.658156 0.028269
vt 0.616663 0.050447
vt 0.580294 0.080294
vt 0.550447 0.116663
vt 0.528269 0.158156
vt 0.514611 0.203179
vt 0.510000 0.250000
vt 0.514612 0.296822
vt 0.528269 0.341844
vt 0.550447 0.383337
vt 0.580295 0.419706
vt 0.616663 0.449553
vt 0.658156 0.471731
vt 0.703179 0.485388
vn 1.0000 0.0000 0.0000
vn -0.9985 0.0000 -0.0540
vn -1.0000 0.0000 0.0000
vn 0.0000 -1.0000 0.0000
vn 0.0000 1.0000 0.0000
vn 0.0000 0.0000 -1.0000
vn 0.0000 0.0000 1.0000
vn 0.9981 0.0000 -0.0613
vn -0.0822 0.0000 0.9966
vn -0.2461 0.0000 0.9692
vn -0.4084 0.0000 0.9128
vn -0.5662 0.0000 0.8243
vn -0.7140 0.0000 0.7001
vn -0.8428 0.0000 0.5382
vn -0.9402 0.0000 0.3407
vn -0.9931 0.0000 0.1169
vn -0.9931 0.0000 -0.1169
vn -0.9402 0.0000 -0.3407
vn -0.8428 0.0000 -0.5382
vn -0.7140 0.0000 -0.7001
vn -0.5662 0.0000 -0.8243
vn -0.4084 0.0000 -0.9128
vn -0.2461 0.0000 -0.9692
vn -0.0822 0.0000 -0.9966
vn 0.0822 0.0000 -0.9966
vn 0.2461 0.0000 -0.9692
vn 0.4084 0.0000 -0.9128
vn 0.5662 0.0000 -0.8243
vn 0.7140 0.0000 -0.7001
vn 0.8428 0.0000 -0.5382
vn 0.9402 0.0000 -0.3407
vn 0.9931 0.0000 -0.1169
vn 0.9931 0.0000 0.1169
vn 0.9402 0.0000 0.3407
vn 0.8428 0.0000 0.5382
vn 0.7140 0.0000 0.7001
vn 0.5662 0.0000 0.8243
vn 0.4084 0.0000 0.9128
vn 0.2461 0.0000 0.9692
vn 0.0822 0.0000 0.9966
vn -0.0793 0.0000 0.9969
vn -0.2379 0.0000 0.9713
vn -0.3963 0.0000 0.9181
vn -0.5524 0.0000 0.8336
vn -0.7014 0.0000 0.7128
vn -0.8339 0.0000 0.5520
vn -0.9361 0.0000 0.3517
vn -0.9926 0.0000 0.1211
vn -0.9926 0.0000 -0.1211
vn -0.9361 0.0000 -0.3517
vn -0.8339 0.0000 -0.5520
vn -0.7014 0.0000 -0.7128
vn -0.5524 0.0000 -0.8336
vn -0.3963 0.0000 -0.9181
vn -0.2379 0.0000 -0.9713
vn -0.0793 0.0000 -0.9969
vn 0.0793 0.0000 -0.9969
vn 0.2379 0.0000 -0.9713
vn 0.3963 0.0000 -0.9181
vn 0.5524 0.0000 -0.8336
vn 0.7014 0.0000 -0.7128
vn 0.8339 0.0000 -0.5519
vn 0.9361 0.0000 -0.3517
vn 0.9926 0.0000 -0.1211
vn 0.9926 0.0000 0.1211
vn 0.9361 0.0000 0.3517
vn 0.8339 0.0000 0.5520
vn 0.7014 0.0000 0.7128
vn 0.5524 0.0000 0.8336
vn 0.3963 0.0000 0.9181
vn 0.2379 0.0000 0.9713
vn 0.0793 0.0000 0.9969
usemtl None
s off
f 1/1/1 2/2/1 4/3/1 3/4/1
f 44/5/2 43/6/2 8/7/2 7/8/2
f 7/8/3 8/7/3 6/9/3 5/10/3
f 14/11/1 13/12/1 9/13/1 10/14/1
f 3/15/4 7/8/4 5/10/4 1/16/4
f 8/7/5 4/17/5 2/18/5 6/9/5
f 12/19/6 11/20/6 10/21/6 9/22/6
f 13/23/4 15/24/4 12/19/4 9/25/4
f 16/26/5 14/27/5 10/28/5 11/20/5
f 22/29/5 21/30/5 17/31/5 20/32/5
f 5/10/3 6/9/3 16/26/3 15/24/3
f 6/9/5 2/18/5 14/27/5 16/26/5
f 1/16/4 5/10/4 15/24/4 13/23/4
f 2/2/1 1/1/1 13/12/1 14/11/1
f 19/33/3 20/32/3 17/31/3 18/34/3
f 21/30/6 23/35/6 18/34/6 17/31/6
f 38/36/5 37/37/5 33/38/5 35/39/5
f 23/35/4 24/40/4 19/33/4 18/34/4
f 12/19/4 15/24/4 24/40/4 23/35/4
f 15/24/7 16/26/7 22/29/7 24/40/7
f 11/20/6 12/19/6 23/35/6 21/30/6
f 16/26/5 11/20/5 21/30/5 22/29/5
f 28/41/7 27/42/7 25/43/7 26/44/7
f 31/45/4 30/46/4 28/41/4 26/44/4
f 29/47/5 32/48/5 25/43/5 27/42/5
f 32/48/3 31/45/3 26/44/3 25/43/3
f 20/32/3 19/33/3 31/45/3 32/48/3
f 22/29/5 20/32/5 32/48/5 29/47/5
f 19/33/4 24/40/4 30/46/4 31/45/4
f 24/40/1 22/29/1 29/47/1 30/46/1
f 36/49/1 35/39/1 33/38/1 34/50/1
f 35/39/1 36/49/1 42/51/1 41/52/1
f 40/53/4 39/54/4 36/49/4 34/50/4
f 37/37/7 40/53/7 34/50/7 33/38/7
f 27/42/7 28/41/7 40/53/7 37/37/7
f 28/41/4 30/46/4 39/54/4 40/53/4
f 30/46/6 29/47/6 38/36/6 39/54/6
f 29/47/5 27/42/5 37/37/5 38/36/5
f 42/51/4 44/5/4 7/8/4 3/15/4
f 39/54/3 38/36/3 43/6/3 44/5/3
f 36/49/4 39/54/4 44/5/4 42/51/4
f 38/36/5 35/39/5 41/52/5 43/6/5
f 43/6/5 41/52/5 4/17/5 8/7/5
f 41/52/8 42/51/8 3/4/8 4/3/8
f 45/55/9 46/56/9 48/57/9 47/58/9
f 47/58/10 48/57/10 50/59/10 49/60/10
f 49/60/11 50/59/11 52/61/11 51/62/11
f 51/62/12 52/61/12 54/63/12 53/64/12
f 53/64/13 54/63/13 56/65/13 55/66/13
f 55/66/14 56/65/14 58/67/14 57/68/14
f 57/68/15 58/67/15 60/69/15 59/70/15
f 59/70/16 60/69/16 62/71/16 61/72/16
f 61/72/17 62/71/17 64/73/17 63/74/17
f 63/74/18 64/73/18 66/75/18 65/76/18
f 65/76/19 66/75/19 68/77/19 67/78/19
f 67/78/20 68/77/20 70/79/20 69/80/20
f 69/80/21 70/79/21 72/81/21 71/82/21
f 71/82/22 72/81/22 74/83/22 73/84/22
f 73/84/23 74/83/23 76/85/23 75/86/23
f 75/86/24 76/85/24 78/87/24 77/88/24
f 77/88/25 78/87/25 80/89/25 79/90/25
f 79/90/26 80/89/26 82/91/26 81/92/26
f 81/92/27 82/91/27 84/93/27 83/94/27
f 83/94/28 84/93/28 86/95/28 85/96/28
f 85/96/29 86/95/29 88/97/29 87/98/29
f 87/98/30 88/97/30 90/99/30 89/100/30
f 89/100/31 90/99/31 92/101/31 91/102/31
f 91/102/32 92/101/32 94/103/32 93/104/32
f 93/104/33 94/103/33 96/105/33 95/106/33
f 95/106/34 96/105/34 98/107/34 97/108/34
f 97/108/35 98/107/35 100/109/35 99/110/35
f 99/110/36 100/109/36 102/111/36 101/112/36
f 101/112/37 102/111/37 104/113/37 103/114/37
f 103/114/38 104/113/38 106/115/38 105/116/38
f 48/117/5 46/118/5 108/119/5 106/120/5 104/121/5 102/122/5 100/123/5 98/124/5 96/125/5 94/126/5 92/127/5 90/128/5 88/129/5 86/130/5 84/131/5 82/132/5 80/133/5 78/134/5 76/135/5 74/136/5 72/137/5 70/138/5 68/139/5 66/140/5 64/141/5 62/142/5 60/143/5 58/144/5 56/145/5 54/146/5 52/147/5 50/148/5
f 105/116/39 106/115/39 108/149/39 107/150/39
f 107/150/40 108/149/40 46/151/40 45/152/40
f 45/153/4 47/154/4 49/155/4 51/156/4 53/157/4 55/158/4 57/159/4 59/160/4 61/161/4 63/162/4 65/163/4 67/164/4 69/165/4 71/166/4 73/167/4 75/168/4 77/169/4 79/170/4 81/171/4 83/172/4 85/173/4 87/174/4 89/175/4 91/176/4 93/177/4 95/178/4 97/179/4 99/180/4 101/181/4 103/182/4 105/183/4 107/184/4
f 109/185/41 110/186/41 112/187/41 111/188/41
f 111/188/42 112/187/42 114/189/42 113/190/42
f 113/190/43 114/189/43 116/191/43 115/192/43
f 115/192/44 116/191/44 118/193/44 117/194/44
f 117/194/45 118/193/45 120/195/45 119/196/45
f 119/196/46 120/195/46 122/197/46 121/198/46
f 121/198/47 122/197/47 124/199/47 123/200/47
f 123/200/48 124/199/48 126/201/48 125/202/48
f 125/202/49 126/201/49 128/203/49 127/204/49
f 127/204/50 128/203/50 130/205/50 129/206/50
f 129/206/51 130/205/51 132/207/51 131/208/51
f 131/208/52 132/207/52 134/209/52 133/210/52
f 133/210/53 134/209/53 136/211/53 135/212/53
f 135/212/54 136/211/54 138/213/54 137/214/54
f 137/214/55 138/213/55 140/215/55 139/216/55
f 139/216/56 140/215/56 142/217/56 141/218/56
f 141/218/57 142/217/57 144/219/57 143/220/57
f 143/220/58 144/219/58 146/221/58 145/222/58
f 145/222/59 146/221/59 148/223/59 147/224/59
f 147/224/60 148/223/60 150/225/60 149/226/60
f 149/226/61 150/225/61 152/227/61 151/228/61
f 151/228/62 152/227/62 154/229/62 153/230/62
f 153/230/63 154/229/63 156/231/63 155/232/63
f 155/232/64 156/231/64 158/233/64 157/234/64
f 157/234/65 158/233/65 160/235/65 159/236/65
f 159/236/66 160/235/66 162/237/66 161/238/66
f 161/238/67 162/237/67 164/239/67 163/240/67
f 163/240/68 164/239/68 166/241/68 165/242/68
f 165/242/69 166/241/69 168/243/69 167/244/69
f 167/244/70 168/243/70 170/245/70 169/246/70
f 112/247/5 110/248/5 172/249/5 170/250/5 168/251/5 166/252/5 164/253/5 162/254/5 160/255/5 158/256/5 156/257/5 154/258/5 152/259/5 150/260/5 148/261/5 146/262/5 144/263/5 142/264/5 140/265/5 138/266/5 136/267/5 134/268/5 132/269/5 130/270/5 128/271/5 126/272/5 124/273/5 122/274/5 120/275/5 118/276/5 116/277/5 114/278/5
f 169/246/71 170/245/71 172/279/71 171/280/71
f 171/280/72 172/279/72 110/281/72 109/282/72
f 109/283/4 111/284/4 113/285/4 115/286/4 117/287/4 119/288/4 121/289/4 123/290/4 125/291/4 127/292/4 129/293/4 131/294/4 133/295/4 135/296/4 137/297/4 139/298/4 141/299/4 143/300/4 145/301/4 147/302/4 149/303/4 151/304/4 153/305/4 155/306/4 157/307/4 159/308/4 161/309/4 163/310/4 165/311/4 167/312/4 169/313/4 171/314/4
