# Blender v2.92.0 OBJ File: 'lake_track.blend'
# www.blender.org
mtllib lake_track_bounds.mtl
v 13.880982 -0.030738 -14.117280
v 13.880982 2.288265 -14.117280
v 13.880982 -0.030738 12.866232
v 13.880982 2.288265 12.866232
v 13.128221 -0.030738 -14.117280
v 13.128221 2.288265 -14.117280
v 13.128221 -0.030738 12.866232
v 13.128221 2.288265 12.866232
v 13.880982 -0.030738 12.106186
v 13.880982 2.288265 12.106186
v 13.128221 -0.030738 12.106186
v 13.128221 2.288265 12.106186
v 7.535107 2.288265 12.866232
v 7.535107 -0.030738 12.866232
v 7.535107 -0.030738 12.106186
v 7.535107 2.288265 12.106186
v 8.507769 2.288265 12.866232
v 8.507769 -0.030738 12.866232
v 8.507769 2.288265 12.106186
v 8.507769 -0.030738 12.106186
v 7.535107 2.288265 16.042601
v 7.535107 -0.030738 16.042601
v 8.507769 2.288265 16.042601
v 8.507769 -0.030738 16.042601
v 7.535107 2.288265 15.367997
v 8.507769 2.288265 15.367997
v 8.507769 -0.030738 15.367997
v 7.535107 -0.030738 15.367997
v -16.947937 2.288265 16.042601
v -16.947937 -0.030738 16.042601
v -16.947937 2.288265 15.367997
v -16.947937 -0.030738 15.367997
v -6.830213 2.288265 16.042601
v -6.830211 -0.030738 16.042601
v -6.830211 -0.030738 15.367997
v -6.830213 2.288265 15.367997
v -16.947937 3.992265 15.367997
v -16.947937 3.992265 16.042601
v -6.830213 3.992265 16.042601
v -6.830213 3.992265 15.367997
v -16.127697 2.288265 16.042601
v -16.127697 2.288265 15.367997
v -16.127697 -0.030738 16.042601
v -16.127697 -0.030738 15.367997
v -16.127697 3.992265 16.042601
v -16.127697 3.992265 15.367997
v -16.947937 -0.030738 6.614331
v -16.947937 2.288265 6.614331
v -16.127697 2.288265 6.614331
v -16.127697 3.992265 6.614331
v -16.947937 3.992265 6.614331
v -16.127697 -0.030738 6.614331
v -16.127697 3.992265 7.451293
v -16.947937 3.992265 7.451293
v -16.947937 -0.030738 7.451293
v -16.127697 -0.030738 7.451293
v -16.947937 2.288265 7.451293
v -16.127697 2.288265 7.451293
v -14.394429 -0.030738 6.614331
v -14.394429 2.288265 6.614331
v -14.394429 -0.030738 7.451293
v -14.394429 2.288265 7.451293
v -15.349620 -0.030738 7.451293
v -15.349620 2.288265 7.451293
v -15.349620 2.288265 6.614331
v -15.349620 -0.030738 6.614331
v -14.394429 -0.030738 -16.134407
v -14.394429 2.288265 -16.134407
v -15.349620 2.288265 -16.134407
v -15.349620 -0.030738 -16.134407
v -14.394429 2.288265 -15.233184
v -15.349620 2.288265 -15.233184
v -14.394429 -0.030738 -15.233184
v -15.349620 -0.030738 -15.233184
v 4.565547 -0.030738 -16.134407
v 4.565547 2.288265 -16.134407
v 4.565547 2.288265 -15.233184
v 4.565547 -0.030738 -15.233184
v 3.573002 2.288265 -16.134407
v 3.573002 -0.030738 -16.134407
v 3.573002 -0.030738 -15.233184
v 3.573002 2.288265 -15.233184
v 4.565547 -0.030738 -20.309349
v 4.565547 2.288265 -20.309349
v 3.573002 2.288265 -20.309349
v 3.573002 -0.030738 -20.309349
v 4.565547 2.288265 -19.317537
v 3.573002 2.288265 -19.317537
v 3.573002 -0.030738 -19.317537
v 4.565547 -0.030738 -19.317537
v 7.766687 -0.030738 -20.309349
v 7.766687 2.288265 -20.309349
v 7.766687 2.288265 -19.317537
v 7.766687 -0.030738 -19.317537
v 7.091578 2.288265 -19.317537
v 7.091578 2.288265 -20.309349
v 7.091578 -0.030738 -19.317537
v 7.091578 -0.030738 -20.309349
v 7.766687 -0.030738 -15.871662
v 7.766687 2.288265 -15.871662
v 7.091578 2.288265 -15.871662
v 7.091578 -0.030738 -15.871662
v 7.766687 -0.030738 -16.676168
v 7.091578 -0.030738 -16.676168
v 7.091578 2.288265 -16.676168
v 7.766687 2.288265 -16.676168
v 13.998127 -0.030738 -15.871662
v 13.998127 2.288265 -15.871662
v 13.998127 -0.030738 -16.676168
v 13.998127 2.288265 -16.676168
v 13.100970 -0.030738 -16.676168
v 13.100970 -0.030738 -15.871662
v 13.100970 2.288265 -16.676168
v 13.100970 2.288265 -15.871662
v 13.998127 -0.030738 -14.657437
v 13.998127 2.288265 -14.657437
v 13.100970 -0.030738 -14.657437
v 13.100970 2.288265 -14.657437
vt 0.375000 0.242549
vt 0.625000 0.242549
vt 0.625000 0.250000
vt 0.375000 0.250000
vt 0.625000 0.500000
vt 0.375000 0.500000
vt 0.375000 0.507451
vt 0.625000 0.507451
vt 0.625000 0.750000
vt 0.375000 0.750000
vt 0.625000 0.500000
vt 0.375000 0.500000
vt 0.125000 0.507451
vt 0.125000 0.750000
vt 0.875000 0.507451
vt 0.875000 0.750000
vt 0.875000 0.500000
vt 0.125000 0.500000
vt 0.625000 0.500000
vt 0.625000 0.500000
vt 0.625000 0.500000
vt 0.625000 0.500000
vt 0.375000 0.000000
vt 0.625000 0.000000
vt 0.375000 0.500000
vt 0.625000 0.500000
vt 0.625000 0.507451
vt 0.375000 0.507451
vt 0.625000 0.500000
vt 0.625000 0.507451
vt 0.375000 0.507451
vt 0.375000 0.500000
vt 0.375000 0.500000
vt 0.375000 0.500000
vt 0.375000 0.500000
vt 0.375000 0.500000
vt 0.625000 0.500000
vt 0.625000 0.500000
vt 0.375000 0.500000
vt 0.375000 0.500000
vt 0.625000 0.500000
vt 0.375000 0.500000
vt 0.375000 0.500000
vt 0.625000 0.500000
vt 0.625000 0.500000
vt 0.625000 0.500000
vt 0.375000 0.500000
vt 0.375000 0.500000
vt 0.375000 0.500000
vt 0.375000 0.500000
vt 0.375000 0.500000
vt 0.625000 0.500000
vt 0.375000 0.500000
vt 0.625000 0.500000
vt 0.625000 0.500000
vt 0.625000 0.500000
vt 0.625000 0.500000
vt 0.625000 0.500000
vt 0.625000 0.500000
vt 0.625000 0.500000
vt 0.625000 0.500000
vt 0.625000 0.500000
vt 0.625000 0.500000
vt 0.625000 0.500000
vt 0.625000 0.500000
vt 0.625000 0.500000
vt 0.375000 0.500000
vt 0.375000 0.500000
vt 0.625000 0.500000
vt 0.625000 0.500000
vt 0.375000 0.500000
vt 0.625000 0.500000
vt 0.625000 0.500000
vt 0.625000 0.500000
vt 0.625000 0.500000
vt 0.625000 0.500000
vt 0.625000 0.500000
vt 0.375000 0.500000
vt 0.375000 0.500000
vt 0.375000 0.500000
vt 0.625000 0.500000
vt 0.625000 0.500000
vt 0.625000 0.500000
vt 0.625000 0.500000
vt 0.375000 0.500000
vt 0.375000 0.500000
vt 0.625000 0.500000
vt 0.375000 0.500000
vt 0.375000 0.500000
vt 0.625000 0.500000
vt 0.625000 0.500000
vt 0.375000 0.500000
vt 0.375000 0.500000
vt 0.625000 0.500000
vt 0.375000 0.500000
vt 0.375000 0.500000
vt 0.375000 0.500000
vt 0.625000 0.500000
vt 0.625000 0.500000
vt 0.625000 0.500000
vt 0.625000 0.500000
vt 0.375000 0.500000
vt 0.375000 0.500000
vt 0.375000 0.500000
vt 0.375000 0.500000
vt 0.375000 0.500000
vt 0.375000 0.500000
vt 0.375000 0.500000
vt 0.375000 0.500000
vt 0.375000 0.500000
vt 0.625000 0.500000
vt 0.625000 0.500000
vt 0.625000 0.500000
vt 0.625000 0.500000
vt 0.375000 0.500000
vt 0.375000 0.500000
vt 0.375000 0.500000
vt 0.375000 0.500000
vt 0.625000 0.500000
vt 0.625000 0.500000
vt 0.625000 0.500000
vt 0.375000 0.500000
vt 0.625000 0.500000
vt 0.625000 0.500000
vn 1.0000 0.0000 0.0000
vn 0.0000 0.0000 1.0000
vn -1.0000 0.0000 0.0000
vn -0.9987 0.0000 0.0504
vn 0.0000 -1.0000 0.0000
vn 0.0000 1.0000 0.0000
vn 0.0000 0.0000 -1.0000
vn 0.9773 0.0000 0.2119
usemtl None
s off
f 9/1/1 10/2/1 4/3/1 3/4/1
f 3/4/2 4/3/2 8/5/2 7/6/2
f 11/7/3 12/8/3 6/9/3 5/10/3
f 118/11/4 117/12/4 5/10/4 6/9/4
f 9/13/5 11/7/5 5/10/5 1/14/5
f 12/8/6 10/15/6 2/16/6 6/9/6
f 8/5/6 4/17/6 10/15/6 12/8/6
f 3/18/5 7/6/5 11/7/5 9/13/5
f 26/19/6 25/20/6 21/21/6 23/22/6
f 1/23/1 2/24/1 10/2/1 9/1/1
f 14/25/3 13/26/3 16/27/3 15/28/3
f 17/29/6 19/30/6 16/27/6 13/26/6
f 20/31/5 18/32/5 14/25/5 15/28/5
f 19/30/7 20/31/7 15/28/7 16/27/7
f 12/8/7 11/7/7 20/31/7 19/30/7
f 11/7/5 7/6/5 18/32/5 20/31/5
f 8/5/6 12/8/6 19/30/6 17/29/6
f 7/6/2 8/5/2 17/29/2 18/32/2
f 24/33/2 23/22/2 21/21/2 22/34/2
f 27/35/1 26/19/1 23/22/1 24/33/1
f 43/36/2 41/37/2 29/38/2 30/39/2
f 28/40/5 27/35/5 24/33/5 22/34/5
f 14/25/5 18/32/5 27/35/5 28/40/5
f 13/26/3 14/25/3 28/40/3 25/20/3
f 18/32/1 17/29/1 26/19/1 27/35/1
f 17/29/6 13/26/6 25/20/6 26/19/6
f 31/41/3 32/42/3 30/39/3 29/38/3
f 44/43/5 43/36/5 30/39/5 32/42/5
f 41/37/2 33/44/2 39/45/2 45/46/2
f 56/47/5 55/48/5 47/49/5 52/50/5
f 25/20/7 28/40/7 35/51/7 36/52/7
f 21/21/6 25/20/6 36/52/6 33/44/6
f 28/40/5 22/34/5 34/53/5 35/51/5
f 22/34/2 21/21/2 33/44/2 34/53/2
f 45/46/6 46/54/6 37/55/6 38/56/6
f 33/44/1 36/52/1 40/57/1 39/45/1
f 54/58/6 53/59/6 50/60/6 51/61/6
f 31/41/3 29/38/3 38/56/3 37/55/3
f 36/52/7 42/62/7 46/54/7 40/57/7
f 39/45/6 40/57/6 46/54/6 45/46/6
f 36/52/7 35/51/7 44/43/7 42/62/7
f 29/38/2 41/37/2 45/46/2 38/56/2
f 35/51/5 34/53/5 43/36/5 44/43/5
f 34/53/2 33/44/2 41/37/2 43/36/2
f 49/63/7 52/50/7 47/49/7 48/64/7
f 49/63/7 48/64/7 51/61/7 50/60/7
f 55/48/3 57/65/3 48/64/3 47/49/3
f 57/65/3 54/58/3 51/61/3 48/64/3
f 64/66/2 63/67/2 61/68/2 62/69/2
f 53/59/1 58/70/1 49/63/1 50/60/1
f 46/54/1 42/62/1 58/70/1 53/59/1
f 42/62/1 44/43/1 56/47/1 58/70/1
f 31/41/3 37/55/3 54/58/3 57/65/3
f 32/42/3 31/41/3 57/65/3 55/48/3
f 37/55/6 46/54/6 53/59/6 54/58/6
f 44/43/5 32/42/5 55/48/5 56/47/5
f 62/69/1 61/68/1 59/71/1 60/72/1
f 72/73/6 71/74/6 68/75/6 69/76/6
f 65/77/6 64/66/6 62/69/6 60/72/6
f 63/67/5 66/78/5 59/71/5 61/68/5
f 56/47/5 52/50/5 66/78/5 63/67/5
f 49/63/6 58/70/6 64/66/6 65/77/6
f 52/50/7 49/63/7 65/77/7 66/78/7
f 58/70/2 56/47/2 63/67/2 64/66/2
f 70/79/7 69/76/7 68/75/7 67/80/7
f 88/81/6 87/82/6 84/83/6 85/84/6
f 73/85/5 74/86/5 70/79/5 67/80/5
f 74/86/3 72/73/3 69/76/3 70/79/3
f 66/78/3 65/77/3 72/73/3 74/86/3
f 59/71/5 66/78/5 74/86/5 73/85/5
f 60/72/1 59/71/1 73/85/1 71/74/1
f 65/77/6 60/72/6 71/74/6 72/73/6
f 77/87/1 78/88/1 75/89/1 76/90/1
f 82/91/2 81/92/2 78/88/2 77/87/2
f 81/92/5 80/93/5 75/89/5 78/88/5
f 79/94/6 82/91/6 77/87/6 76/90/6
f 68/75/6 71/74/6 82/91/6 79/94/6
f 73/85/5 67/80/5 80/93/5 81/92/5
f 71/74/2 73/85/2 81/92/2 82/91/2
f 67/80/7 68/75/7 79/94/7 80/93/7
f 86/95/7 85/84/7 84/83/7 83/96/7
f 89/97/3 88/81/3 85/84/3 86/95/3
f 96/98/6 95/99/6 93/100/6 92/101/6
f 90/102/5 89/97/5 86/95/5 83/96/5
f 75/89/5 80/93/5 89/97/5 90/102/5
f 76/90/1 75/89/1 90/102/1 87/82/1
f 80/93/3 79/94/3 88/81/3 89/97/3
f 79/94/6 76/90/6 87/82/6 88/81/6
f 93/100/1 94/103/1 91/104/1 92/101/1
f 104/105/5 103/106/5 99/107/5 102/108/5
f 98/109/7 96/98/7 92/101/7 91/104/7
f 97/110/5 98/109/5 91/104/5 94/103/5
f 90/102/5 83/96/5 98/109/5 97/110/5
f 83/96/7 84/83/7 96/98/7 98/109/7
f 87/82/2 90/102/2 97/110/2 95/99/2
f 84/83/6 87/82/6 95/99/6 96/98/6
f 101/111/2 102/108/2 99/107/2 100/112/2
f 106/113/6 105/114/6 101/111/6 100/112/6
f 112/115/5 111/116/5 109/117/5 107/118/5
f 105/114/3 104/105/3 102/108/3 101/111/3
f 95/99/3 97/110/3 104/105/3 105/114/3
f 94/103/1 93/100/1 106/113/1 103/106/1
f 93/100/6 95/99/6 105/114/6 106/113/6
f 97/110/5 94/103/5 103/106/5 104/105/5
f 109/117/1 110/119/1 108/120/1 107/118/1
f 111/116/7 113/121/7 110/119/7 109/117/7
f 112/115/5 107/118/5 115/122/5 117/12/5
f 113/121/6 114/123/6 108/120/6 110/119/6
f 106/113/6 100/112/6 114/123/6 113/121/6
f 100/112/2 99/107/2 112/115/2 114/123/2
f 103/106/7 106/113/7 113/121/7 111/116/7
f 99/107/5 103/106/5 111/116/5 112/115/5
f 116/124/6 118/11/6 6/9/6 2/16/6
f 114/123/3 112/115/3 117/12/3 118/11/3
f 107/118/1 108/120/1 116/124/1 115/122/1
f 108/120/6 114/123/6 118/11/6 116/124/6
f 117/12/5 115/122/5 1/14/5 5/10/5
f 115/122/8 116/124/8 2/24/8 1/23/8
