# Blender v2.92.0 OBJ File: 'lake_track.blend'
# www.blender.org
mtllib lake_track_bounds.mtl
v 13.880982 -0.030738 -16.416552
v 13.880982 2.288265 -16.416552
v 13.880982 -0.030738 11.429151
v 13.880982 2.288265 11.429151
v 13.128221 -0.030738 -16.416552
v 13.128221 2.288265 -16.416552
v 13.128221 -0.030738 11.429151
v 13.128221 2.288265 11.429151
v 13.880982 -0.030738 10.669105
v 13.880982 2.288265 10.669105
v 13.128221 -0.030738 10.669105
v 13.128221 2.288265 10.669105
v 8.226545 2.288265 11.429151
v 8.226545 -0.030738 11.429151
v 8.226545 -0.030738 10.669105
v 8.226545 2.288265 10.669105
v 9.199207 2.288265 11.429151
v 9.199207 -0.030738 11.429151
v 9.199207 2.288265 10.669105
v 9.199207 -0.030738 10.669105
v 8.226545 2.288265 16.042601
v 8.226545 -0.030738 16.042601
v 9.199207 2.288265 16.042601
v 9.199207 -0.030738 16.042601
v 8.226545 2.288265 15.367997
v 9.199207 2.288265 15.367997
v 9.199207 -0.030738 15.367997
v 8.226545 -0.030738 15.367997
v -16.947937 2.288265 16.042601
v -16.947937 -0.030738 16.042601
v -16.947937 2.288265 15.367997
v -16.947937 -0.030738 15.367997
v -6.830213 2.288265 16.042601
v -6.830211 -0.030738 16.042601
v -6.830211 -0.030738 15.367997
v -6.830213 2.288265 15.367997
v -16.947937 3.992265 15.367997
v -16.947937 3.992265 16.042601
v -6.830213 3.992265 16.042601
v -6.830213 3.992265 15.367997
v -16.127697 2.288265 16.042601
v -16.127697 2.288265 15.367997
v -16.127697 -0.030738 16.042601
v -16.127697 -0.030738 15.367997
v -16.127697 3.992265 16.042601
v -16.127697 3.992265 15.367997
v -16.947937 -0.030738 6.614331
v -16.947937 2.288265 6.614331
v -16.127697 2.288265 6.614331
v -16.127697 3.992265 6.614331
v -16.947937 3.992265 6.614331
v -16.127697 -0.030738 6.614331
v -16.127697 3.992265 7.451293
v -16.947937 3.992265 7.451293
v -16.947937 -0.030738 7.451293
v -16.127697 -0.030738 7.451293
v -16.947937 2.288265 7.451293
v -16.127697 2.288265 7.451293
v -14.394429 -0.030738 6.614331
v -14.394429 2.288265 6.614331
v -14.394429 -0.030738 7.451293
v -14.394429 2.288265 7.451293
v -15.349620 -0.030738 7.451293
v -15.349620 2.288265 7.451293
v -15.349620 2.288265 6.614331
v -15.349620 -0.030738 6.614331
v -14.394429 -0.030738 -16.134407
v -14.394429 2.288265 -16.134407
v -15.349620 2.288265 -16.134407
v -15.349620 -0.030738 -16.134407
v -14.394429 2.288265 -15.233184
v -15.349620 2.288265 -15.233184
v -14.394429 -0.030738 -15.233184
v -15.349620 -0.030738 -15.233184
v 4.565547 -0.030738 -16.134407
v 4.565547 2.288265 -16.134407
v 4.565547 2.288265 -15.233184
v 4.565547 -0.030738 -15.233184
v 3.573002 2.288265 -16.134407
v 3.573002 -0.030738 -16.134407
v 3.573002 -0.030738 -15.233184
v 3.573002 2.288265 -15.233184
v 4.565547 -0.030738 -20.309349
v 4.565547 2.288265 -20.309349
v 3.573002 2.288265 -20.309349
v 3.573002 -0.030738 -20.309349
v 4.565547 2.288265 -19.317537
v 3.573002 2.288265 -19.317537
v 3.573002 -0.030738 -19.317537
v 4.565547 -0.030738 -19.317537
v 7.766687 -0.030738 -20.309349
v 7.766687 2.288265 -20.309349
v 7.766687 2.288265 -19.317537
v 7.766687 -0.030738 -19.317537
v 7.091578 2.288265 -19.317537
v 7.091578 2.288265 -20.309349
v 7.091578 -0.030738 -19.317537
v 7.091578 -0.030738 -20.309349
v 7.766687 -0.030738 -15.871662
v 7.766687 2.288265 -15.871662
v 7.091578 2.288265 -15.871662
v 7.091578 -0.030738 -15.871662
v 7.766687 -0.030738 -16.676168
v 7.091578 -0.030738 -16.676168
v 7.091578 2.288265 -16.676168
v 7.766687 2.288265 -16.676168
v 13.998127 -0.030738 -15.871662
v 13.998127 2.288265 -15.871662
v 13.998127 -0.030738 -16.676168
v 13.998127 2.288265 -16.676168
v 13.100970 -0.030738 -16.676168
v 13.100970 -0.030738 -15.871662
v 13.100970 2.288265 -16.676168
v 13.100970 2.288265 -15.871662
v 13.998127 -0.030738 -16.956709
v 13.998127 2.288265 -16.956709
v 13.100970 -0.030738 -16.956709
v 13.100970 2.288265 -16.956709
v 1.884958 -0.030738 16.042601
v 1.884958 -0.030738 15.367997
v 1.884956 2.288265 16.042601
v 1.884956 2.288265 15.367997
v 1.156013 2.288265 16.042601
v 1.156013 2.288265 15.367997
v 1.156015 -0.030738 16.042601
v 1.156015 -0.030738 15.367997
v -8.923890 -0.030744 10.327234
v -8.923890 2.288259 10.327234
v -8.923890 -0.030744 11.202543
v -8.923890 2.288259 11.202543
v -8.201806 2.288259 10.327234
v -8.201806 2.288259 11.202543
v -8.201806 -0.030744 11.202543
v -8.201806 -0.030744 10.327234
v -8.923890 2.288259 14.118893
v -8.923890 -0.030744 14.118893
v -8.201806 -0.030744 14.118893
v -8.201806 2.288259 14.118893
v -8.992988 -0.030738 16.042601
v -8.992988 -0.030738 15.367997
v -8.992990 2.288265 16.042601
v -8.992990 2.288265 15.367997
v -8.992990 3.992265 16.042601
v -8.992990 3.992265 15.367997
v -8.056849 -0.030738 16.042601
v -8.056849 -0.030738 15.367997
v -8.056851 2.288265 16.042601
v -8.056851 2.288265 15.367997
v -8.056851 3.992265 16.042601
v -8.056851 3.992265 15.367997
v -11.124984 -0.030738 6.614331
v -11.124984 2.288265 6.614331
v -11.124984 -0.030738 7.451293
v -11.124984 2.288265 7.451293
v -8.201806 2.288259 10.557103
v -8.201806 -0.030744 10.557103
vt 0.375000 0.242549
vt 0.625000 0.242549
vt 0.625000 0.250000
vt 0.375000 0.250000
vt 0.625000 0.500000
vt 0.375000 0.500000
vt 0.375000 0.507451
vt 0.625000 0.507451
vt 0.625000 0.750000
vt 0.375000 0.750000
vt 0.625000 0.500000
vt 0.375000 0.500000
vt 0.125000 0.507451
vt 0.125000 0.750000
vt 0.875000 0.507451
vt 0.875000 0.750000
vt 0.875000 0.500000
vt 0.125000 0.500000
vt 0.625000 0.500000
vt 0.625000 0.500000
vt 0.625000 0.500000
vt 0.625000 0.500000
vt 0.375000 0.000000
vt 0.625000 0.000000
vt 0.375000 0.500000
vt 0.625000 0.500000
vt 0.625000 0.507451
vt 0.375000 0.507451
vt 0.625000 0.500000
vt 0.625000 0.507451
vt 0.375000 0.507451
vt 0.375000 0.500000
vt 0.375000 0.500000
vt 0.375000 0.500000
vt 0.375000 0.500000
vt 0.375000 0.500000
vt 0.625000 0.500000
vt 0.625000 0.500000
vt 0.375000 0.500000
vt 0.375000 0.500000
vt 0.625000 0.500000
vt 0.375000 0.500000
vt 0.375000 0.500000
vt 0.625000 0.500000
vt 0.625000 0.500000
vt 0.625000 0.500000
vt 0.625000 0.500000
vt 0.375000 0.500000
vt 0.375000 0.500000
vt 0.375000 0.500000
vt 0.375000 0.500000
vt 0.625000 0.500000
vt 0.375000 0.500000
vt 0.375000 0.500000
vt 0.625000 0.500000
vt 0.625000 0.500000
vt 0.375000 0.500000
vt 0.375000 0.500000
vt 0.625000 0.500000
vt 0.625000 0.500000
vt 0.625000 0.500000
vt 0.625000 0.500000
vt 0.625000 0.500000
vt 0.625000 0.500000
vt 0.625000 0.500000
vt 0.625000 0.500000
vt 0.625000 0.500000
vt 0.625000 0.500000
vt 0.625000 0.500000
vt 0.625000 0.500000
vt 0.625000 0.500000
vt 0.375000 0.500000
vt 0.375000 0.500000
vt 0.625000 0.500000
vt 0.625000 0.500000
vt 0.625000 0.500000
vt 0.625000 0.500000
vt 0.625000 0.500000
vt 0.375000 0.500000
vt 0.375000 0.500000
vt 0.625000 0.500000
vt 0.625000 0.500000
vt 0.375000 0.500000
vt 0.375000 0.500000
vt 0.375000 0.500000
vt 0.625000 0.500000
vt 0.625000 0.500000
vt 0.625000 0.500000
vt 0.625000 0.500000
vt 0.625000 0.500000
vt 0.625000 0.500000
vt 0.375000 0.500000
vt 0.375000 0.500000
vt 0.375000 0.500000
vt 0.625000 0.500000
vt 0.625000 0.500000
vt 0.625000 0.500000
vt 0.625000 0.500000
vt 0.375000 0.500000
vt 0.375000 0.500000
vt 0.625000 0.500000
vt 0.375000 0.500000
vt 0.375000 0.500000
vt 0.625000 0.500000
vt 0.625000 0.500000
vt 0.375000 0.500000
vt 0.375000 0.500000
vt 0.625000 0.500000
vt 0.375000 0.500000
vt 0.375000 0.500000
vt 0.375000 0.500000
vt 0.625000 0.500000
vt 0.625000 0.500000
vt 0.625000 0.500000
vt 0.625000 0.500000
vt 0.375000 0.500000
vt 0.375000 0.500000
vt 0.375000 0.500000
vt 0.375000 0.500000
vt 0.375000 0.500000
vt 0.375000 0.500000
vt 0.375000 0.500000
vt 0.375000 0.500000
vt 0.375000 0.500000
vt 0.625000 0.500000
vt 0.625000 0.500000
vt 0.625000 0.500000
vt 0.625000 0.500000
vt 0.375000 0.500000
vt 0.375000 0.500000
vt 0.375000 0.500000
vt 0.375000 0.500000
vt 0.625000 0.500000
vt 0.625000 0.500000
vt 0.625000 0.500000
vt 0.375000 0.500000
vt 0.625000 0.500000
vt 0.625000 0.500000
vt 0.625000 0.500000
vt 0.375000 0.500000
vt 0.375000 0.500000
vt 0.625000 0.500000
vt 0.625000 0.500000
vt 0.625000 0.500000
vt 0.625000 0.500000
vt 0.625000 0.500000
vt 0.375000 0.500000
vt 0.375000 0.500000
vt 0.375000 0.500000
vt 0.375000 0.500000
vt 0.375000 0.500000
vt 0.375000 0.500000
vt 0.625000 0.500000
vt 0.375000 0.500000
vt 0.625000 0.500000
vt 0.625000 0.500000
vt 0.375000 0.500000
vt 0.625000 0.500000
vt 0.625000 0.500000
vt 0.625000 0.500000
vt 0.375000 0.500000
vt 0.625000 0.500000
vn 1.0000 0.0000 0.0000
vn 0.0000 0.0000 1.0000
vn -1.0000 0.0000 0.0000
vn -0.9987 0.0000 0.0504
vn 0.0000 -1.0000 0.0000
vn 0.0000 1.0000 0.0000
vn 0.0000 0.0000 -1.0000
vn 0.9773 0.0000 0.2119
vn 0.9933 0.0000 -0.1153
vn -0.9985 -0.0000 -0.0552
usemtl None
s off
f 9/1/1 10/2/1 4/3/1 3/4/1
f 3/4/2 4/3/2 8/5/2 7/6/2
f 11/7/3 12/8/3 6/9/3 5/10/3
f 118/11/4 117/12/4 5/10/4 6/9/4
f 9/13/5 11/7/5 5/10/5 1/14/5
f 12/8/6 10/15/6 2/16/6 6/9/6
f 8/5/6 4/17/6 10/15/6 12/8/6
f 3/18/5 7/6/5 11/7/5 9/13/5
f 26/19/6 25/20/6 21/21/6 23/22/6
f 1/23/1 2/24/1 10/2/1 9/1/1
f 14/25/3 13/26/3 16/27/3 15/28/3
f 17/29/6 19/30/6 16/27/6 13/26/6
f 20/31/5 18/32/5 14/25/5 15/28/5
f 19/30/7 20/31/7 15/28/7 16/27/7
f 12/8/7 11/7/7 20/31/7 19/30/7
f 11/7/5 7/6/5 18/32/5 20/31/5
f 8/5/6 12/8/6 19/30/6 17/29/6
f 7/6/2 8/5/2 17/29/2 18/32/2
f 24/33/2 23/22/2 21/21/2 22/34/2
f 27/35/1 26/19/1 23/22/1 24/33/1
f 43/36/2 41/37/2 29/38/2 30/39/2
f 28/40/5 27/35/5 24/33/5 22/34/5
f 14/25/5 18/32/5 27/35/5 28/40/5
f 13/26/3 14/25/3 28/40/3 25/20/3
f 18/32/1 17/29/1 26/19/1 27/35/1
f 17/29/6 13/26/6 25/20/6 26/19/6
f 31/41/3 32/42/3 30/39/3 29/38/3
f 44/43/5 43/36/5 30/39/5 32/42/5
f 147/44/2 33/45/2 39/46/2 149/47/2
f 56/48/5 55/49/5 47/50/5 52/51/5
f 124/52/7 126/53/7 35/54/7 36/55/7
f 123/56/6 124/52/6 36/55/6 33/45/6
f 126/53/5 125/57/5 34/58/5 35/54/5
f 125/57/2 123/56/2 33/45/2 34/58/2
f 45/59/6 46/60/6 37/61/6 38/62/6
f 33/45/1 36/55/1 40/63/1 39/46/1
f 54/64/6 53/65/6 50/66/6 51/67/6
f 31/41/3 29/38/3 38/62/3 37/61/3
f 142/68/7 42/69/7 46/60/7 144/70/7
f 143/71/6 144/70/6 46/60/6 45/59/6
f 142/68/7 140/72/7 44/43/7 42/69/7
f 29/38/2 41/37/2 45/59/2 38/62/2
f 140/72/5 139/73/5 43/36/5 44/43/5
f 139/73/2 141/74/2 41/37/2 43/36/2
f 49/75/7 52/51/7 47/50/7 48/76/7
f 49/75/7 48/76/7 51/67/7 50/66/7
f 55/49/3 57/77/3 48/76/3 47/50/3
f 57/77/3 54/64/3 51/67/3 48/76/3
f 64/78/2 63/79/2 61/80/2 62/81/2
f 53/65/1 58/82/1 49/75/1 50/66/1
f 46/60/1 42/69/1 58/82/1 53/65/1
f 42/69/1 44/43/1 56/48/1 58/82/1
f 31/41/3 37/61/3 54/64/3 57/77/3
f 32/42/3 31/41/3 57/77/3 55/49/3
f 37/61/6 46/60/6 53/65/6 54/64/6
f 44/43/5 32/42/5 55/49/5 56/48/5
f 61/80/5 59/83/5 151/84/5 153/85/5
f 72/86/6 71/87/6 68/88/6 69/89/6
f 65/90/6 64/78/6 62/81/6 60/91/6
f 63/79/5 66/92/5 59/83/5 61/80/5
f 56/48/5 52/51/5 66/92/5 63/79/5
f 49/75/6 58/82/6 64/78/6 65/90/6
f 52/51/7 49/75/7 65/90/7 66/92/7
f 58/82/2 56/48/2 63/79/2 64/78/2
f 70/93/7 69/89/7 68/88/7 67/94/7
f 88/95/6 87/96/6 84/97/6 85/98/6
f 73/99/5 74/100/5 70/93/5 67/94/5
f 74/100/3 72/86/3 69/89/3 70/93/3
f 66/92/3 65/90/3 72/86/3 74/100/3
f 59/83/5 66/92/5 74/100/5 73/99/5
f 60/91/1 59/83/1 73/99/1 71/87/1
f 65/90/6 60/91/6 71/87/6 72/86/6
f 77/101/1 78/102/1 75/103/1 76/104/1
f 82/105/2 81/106/2 78/102/2 77/101/2
f 81/106/5 80/107/5 75/103/5 78/102/5
f 79/108/6 82/105/6 77/101/6 76/104/6
f 68/88/6 71/87/6 82/105/6 79/108/6
f 73/99/5 67/94/5 80/107/5 81/106/5
f 71/87/2 73/99/2 81/106/2 82/105/2
f 67/94/7 68/88/7 79/108/7 80/107/7
f 86/109/7 85/98/7 84/97/7 83/110/7
f 89/111/3 88/95/3 85/98/3 86/109/3
f 96/112/6 95/113/6 93/114/6 92/115/6
f 90/116/5 89/111/5 86/109/5 83/110/5
f 75/103/5 80/107/5 89/111/5 90/116/5
f 76/104/1 75/103/1 90/116/1 87/96/1
f 80/107/3 79/108/3 88/95/3 89/111/3
f 79/108/6 76/104/6 87/96/6 88/95/6
f 93/114/1 94/117/1 91/118/1 92/115/1
f 104/119/5 103/120/5 99/121/5 102/122/5
f 98/123/7 96/112/7 92/115/7 91/118/7
f 97/124/5 98/123/5 91/118/5 94/117/5
f 90/116/5 83/110/5 98/123/5 97/124/5
f 83/110/7 84/97/7 96/112/7 98/123/7
f 87/96/2 90/116/2 97/124/2 95/113/2
f 84/97/6 87/96/6 95/113/6 96/112/6
f 101/125/2 102/122/2 99/121/2 100/126/2
f 106/127/6 105/128/6 101/125/6 100/126/6
f 112/129/5 111/130/5 109/131/5 107/132/5
f 105/128/3 104/119/3 102/122/3 101/125/3
f 95/113/3 97/124/3 104/119/3 105/128/3
f 94/117/1 93/114/1 106/127/1 103/120/1
f 93/114/6 95/113/6 105/128/6 106/127/6
f 97/124/5 94/117/5 103/120/5 104/119/5
f 109/131/1 110/133/1 108/134/1 107/132/1
f 111/130/7 113/135/7 110/133/7 109/131/7
f 112/129/6 107/132/6 115/136/6 117/12/6
f 113/135/6 114/137/6 108/134/6 110/133/6
f 106/127/6 100/126/6 114/137/6 113/135/6
f 100/126/2 99/121/2 112/129/2 114/137/2
f 103/120/7 106/127/7 113/135/7 111/130/7
f 99/121/5 103/120/5 111/130/5 112/129/5
f 116/138/6 118/11/6 6/9/6 2/16/6
f 114/137/1 112/129/1 117/12/1 118/11/1
f 107/132/3 108/134/3 116/138/3 115/136/3
f 108/134/5 114/137/5 118/11/5 116/138/5
f 117/12/5 115/136/5 1/14/5 5/10/5
f 115/136/8 116/138/8 2/24/8 1/23/8
f 22/34/2 21/21/2 121/139/2 119/140/2
f 28/40/5 22/34/5 119/140/5 120/141/5
f 21/21/6 25/20/6 122/142/6 121/139/6
f 25/20/7 28/40/7 120/141/7 122/142/7
f 119/140/2 121/139/2 123/56/2 125/57/2
f 120/141/5 119/140/5 125/57/5 126/53/5
f 121/139/6 122/142/6 124/52/6 123/56/6
f 132/143/6 131/144/6 128/145/6 130/146/6
f 129/147/3 130/146/3 128/145/3 127/148/3
f 134/149/5 133/150/5 129/147/5 127/148/5
f 131/144/7 134/149/7 127/148/7 128/145/7
f 129/147/5 133/150/5 137/151/5 136/152/5
f 148/153/9 146/154/9 137/151/9 138/155/9
f 132/143/6 130/146/6 135/156/6 138/155/6
f 130/146/3 129/147/3 136/152/3 135/156/3
f 133/150/1 132/143/1 138/155/1 137/151/1
f 145/157/2 147/44/2 141/74/2 139/73/2
f 146/154/5 145/157/5 139/73/5 140/72/5
f 142/68/6 148/153/6 138/155/6 135/156/6
f 149/47/6 150/158/6 144/70/6 143/71/6
f 148/153/7 142/68/7 144/70/7 150/158/7
f 41/37/2 141/74/2 143/71/2 45/59/2
f 36/55/7 148/153/7 150/158/7 40/63/7
f 39/46/6 40/63/6 150/158/6 149/47/6
f 36/55/7 35/54/7 146/154/7 148/153/7
f 35/54/5 34/58/5 145/157/5 146/154/5
f 34/58/2 33/45/2 147/44/2 145/157/2
f 141/74/2 147/44/2 149/47/2 143/71/2
f 146/154/5 140/72/5 136/152/5 137/151/5
f 140/72/10 142/68/10 135/156/10 136/152/10
f 154/159/1 153/85/1 151/84/1 152/160/1
f 60/91/6 62/81/6 154/159/6 152/160/6
f 59/83/7 60/91/7 152/160/7 151/84/7
f 62/81/2 61/80/2 153/85/2 154/159/2
f 132/143/1 133/150/1 156/161/1 155/162/1
f 155/162/1 156/161/1 134/149/1 131/144/1
f 126/53/7 124/52/7 122/142/7 120/141/7
